<?xml version="1.0" encoding="UTF-8" standalone="no"?>
<!DOCTYPE svg PUBLIC "-//W3C//DTD SVG 1.1//EN" "http://www.w3.org/Graphics/SVG/1.1/DTD/svg11.dtd">
<svg width="100%" height="100%" viewBox="0 0 289 372" version="1.1" xmlns="http://www.w3.org/2000/svg" xmlns:xlink="http://www.w3.org/1999/xlink" xml:space="preserve" xmlns:serif="http://www.serif.com/" style="fill-rule:evenodd;clip-rule:evenodd;stroke-linejoin:round;stroke-miterlimit:2;">
    <path id="path2" d="M140.962,363.54C137.492,359.019 133.946,354.375 133.083,353.221C132.219,352.066 129.348,348.286 126.703,344.821C114.901,329.36 109.762,322.617 107.757,319.961C105.632,317.147 105.591,317.109 104.877,317.323C103.498,317.738 99.818,318.775 96.434,319.703L93.035,320.635L89.937,317.458C86.597,314.032 74.104,300.972 69.253,295.835C67.614,294.1 62.97,289.251 58.933,285.061C51.498,277.344 50.543,276.15 49.822,273.673C49.699,273.252 48.805,271.054 47.836,268.79L46.072,264.674L45.899,266.557C45.478,271.14 45.224,274.408 45.076,277.15C44.989,278.773 44.836,280.015 44.737,279.91C44.339,279.489 42.26,275.427 29.396,249.951C24.206,239.673 24.519,240.564 23.392,232.81C23.25,231.826 23.097,230.985 23.054,230.942C22.872,230.759 22.36,236.234 22.035,241.863C21.949,243.35 21.836,244.524 21.784,244.472C21.669,244.357 20.015,238.311 18.492,232.44C17.876,230.064 16.896,226.338 16.316,224.16C15.735,221.982 15.098,219.552 14.9,218.76C14.702,217.968 14.201,216.078 13.786,214.56C13.372,213.042 12.94,211.358 12.827,210.818C12.714,210.278 12.351,208.874 12.022,207.698C11.434,205.6 10.86,203.414 8.498,194.28C7.85,191.772 6.832,187.884 6.238,185.64C3.416,174.997 3.498,175.443 2.749,166.56C2.609,164.91 2.392,162.48 2.266,161.16C2.14,159.84 1.98,157.896 1.911,156.84C1.842,155.784 1.684,153.894 1.561,152.64C1.437,151.386 1.223,149.064 1.086,147.48C0.948,145.896 0.65,142.602 0.422,140.16C0.195,137.718 0.005,133.614 0.001,131.04C-0.008,126.579 0.066,123.777 0.595,108.36C0.722,104.664 0.885,99.21 0.957,96.24C1.029,93.27 1.149,89.946 1.222,88.854C1.356,86.868 1.356,86.868 2.174,86.526C3.084,86.146 3.115,85.996 3.017,82.38C2.962,80.37 2.994,80.35 4.906,81.194L6.161,81.748L7.101,85.574C7.618,87.678 8.511,91.29 9.086,93.6C9.66,95.91 10.379,98.907 10.684,100.26C10.989,101.613 11.302,102.72 11.38,102.72C11.458,102.72 11.486,100.263 11.442,97.26C11.355,91.247 11.2,92.296 14.015,79.8C14.401,78.084 15.06,75.06 15.479,73.08C15.898,71.1 16.604,68.076 17.049,66.36C17.493,64.644 18.68,60.054 19.686,56.16C20.693,52.266 22.033,47.19 22.666,44.88C23.298,42.57 24.223,39.06 24.721,37.08C25.219,35.1 25.705,33.391 25.8,33.282C25.895,33.173 26.042,33.605 26.128,34.242C26.213,34.879 26.55,36.912 26.876,38.76C27.202,40.608 27.902,44.712 28.433,47.88C28.963,51.048 29.773,55.8 30.232,58.44C31.811,67.526 31.866,68.095 32.151,78.48C32.477,90.357 32.97,104.458 33.063,104.551C33.169,104.657 36.226,99.296 41.156,90.36C43.705,85.74 46.261,81.144 46.836,80.147C47.869,78.356 47.891,78.272 48.59,73.307C49.347,67.928 49.847,64.538 50.395,61.08C50.583,59.892 51.015,56.868 51.355,54.36C52.171,48.33 52.168,48.348 52.551,48.753C52.721,48.933 53.319,49.944 53.881,51C54.442,52.056 56.59,55.836 58.654,59.4C60.718,62.964 62.666,66.366 62.984,66.96C63.301,67.554 64.621,69.857 65.916,72.078C67.212,74.299 68.272,76.164 68.272,76.221C68.272,76.278 70.824,81.535 73.943,87.903C78.88,97.982 81.639,103.681 82.628,105.84C82.839,106.3 82.875,104.819 82.785,99.48C82.721,95.652 82.616,91.71 82.553,90.72C82.49,89.73 82.372,85.572 82.29,81.48C82.208,77.388 82.056,71.664 81.954,68.76C81.715,62.01 81.93,23.829 82.299,7.2L82.387,3.24L84.15,1.996C85.119,1.312 86.038,0.745 86.191,0.736C86.345,0.728 89.717,5.067 93.686,10.38C97.655,15.693 105.018,25.548 110.049,32.28C115.08,39.012 120.094,45.87 121.191,47.52C124.077,51.863 131.152,62.871 131.152,63.019C131.152,63.089 133.69,67.079 136.792,71.888C139.894,76.696 142.432,80.69 142.432,80.764C142.432,80.838 143.223,82.11 144.189,83.589C145.154,85.069 146.15,86.631 146.4,87.06C146.651,87.489 146.93,87.84 147.02,87.84C147.209,87.84 149.303,84.515 155.03,75.12C157.243,71.49 159.627,67.602 160.327,66.48C161.028,65.358 163.679,61.041 166.219,56.886C168.76,52.732 172.081,47.548 173.601,45.366C175.121,43.185 177.285,40.05 178.411,38.4C179.537,36.75 181.399,34.05 182.548,32.4C183.696,30.75 186.165,27.186 188.033,24.48C189.901,21.774 193.149,17.076 195.251,14.04C197.353,11.004 200.389,6.603 201.998,4.26C203.607,1.917 205.001,0 205.097,0C205.192,0 206.082,0.873 207.073,1.94C209.219,4.25 208.961,2.581 209.514,17.76C209.724,23.502 210.048,31.926 210.235,36.48C210.897,52.584 210.952,54.94 210.898,64.8C210.868,70.278 210.718,81.702 210.565,90.187C210.412,98.672 210.333,105.661 210.391,105.718C210.499,105.827 211.04,104.63 214.189,97.32C215.212,94.944 216.864,91.11 217.859,88.8C222.025,79.126 223.249,76.544 226.907,69.706C229.022,65.754 232.394,59.415 234.402,55.619C236.533,51.59 238.12,48.843 238.215,49.019C238.305,49.185 238.454,49.806 238.546,50.4C238.639,50.994 239.076,53.208 239.519,55.32C239.961,57.432 240.663,60.942 241.079,63.12C241.494,65.298 242.139,68.592 242.512,70.44C242.884,72.288 243.427,74.98 243.717,76.423C244.199,78.814 244.453,79.441 246.582,83.503C247.867,85.954 249.785,89.526 250.845,91.44C251.906,93.354 253.419,96.162 254.209,97.68C256.738,102.544 258.152,105.12 258.289,105.12C258.363,105.12 258.352,100.827 258.265,95.58C257.957,77.045 258.041,68.743 258.584,64.08C258.853,61.77 259.178,58.8 259.305,57.48C259.755,52.837 260.252,48.111 260.379,47.28C260.45,46.818 260.781,43.754 261.114,40.471C261.447,37.188 261.77,34.421 261.831,34.322C261.967,34.102 263.838,34.423 264.101,34.711C264.291,34.921 265.596,39.688 267.476,47.04C268.033,49.218 268.858,52.378 269.31,54.061C269.761,55.745 270.442,58.337 270.822,59.821C271.792,63.614 273.767,71.169 275.448,77.52C276.234,80.49 277.031,83.599 277.218,84.429C277.692,86.525 278.979,91.225 279.159,91.516C279.241,91.649 279.299,92.793 279.288,94.059L279.268,96.36L279.941,93.6C280.311,92.082 280.848,89.814 281.134,88.56C282.669,81.833 282.536,82.186 283.979,80.998C284.699,80.405 285.364,79.92 285.457,79.92C285.55,79.92 285.577,81.45 285.517,83.32C285.427,86.142 285.47,86.764 285.766,86.981C286.12,87.24 286.162,87.649 286.566,94.8C286.629,95.922 286.731,97.542 286.793,98.4C286.854,99.258 286.964,101.796 287.037,104.04C287.11,106.284 287.22,108.606 287.282,109.2C287.407,110.399 287.774,117.454 287.999,123C288.079,124.98 288.24,127.95 288.356,129.6C288.559,132.479 288.469,134.723 287.894,141.12C287.758,142.638 287.537,145.5 287.405,147.48C287.141,151.418 286.588,158.322 286.175,162.84C286.031,164.424 285.832,168.852 285.734,172.68L285.555,179.64L284.066,185.64C283.247,188.94 282.097,193.476 281.511,195.72C280.309,200.321 276.597,215.13 274.292,224.52C273.45,227.952 272.546,231.516 272.283,232.44C272.02,233.364 271.422,235.686 270.955,237.6C270.487,239.514 269.958,241.62 269.78,242.28C269.455,243.48 269.455,243.48 269.313,242.64C269.097,241.355 268.23,235.021 268.049,233.4C267.749,230.718 267.552,230.992 267.261,234.494C267.103,236.4 266.919,238.39 266.852,238.916C266.741,239.78 264.513,244.721 260.194,253.68C259.335,255.462 257.286,259.782 255.641,263.28C249.727,275.855 247.926,279.562 247.776,279.469C247.629,279.378 247.404,277.249 247.169,273.72C247.108,272.796 246.953,270.976 246.825,269.675C246.697,268.374 246.591,266.754 246.589,266.075C246.583,264.01 246.287,264.071 245.281,266.344C244.771,267.497 244.008,269.196 243.585,270.12C243.162,271.044 242.562,272.394 242.252,273.12C241.941,273.846 241.519,274.788 241.314,275.214C240.883,276.106 237.139,280.396 225.967,292.8C224.957,293.922 222.349,296.838 220.172,299.28C217.996,301.722 213.951,306.252 211.184,309.347C208.417,312.442 205.044,316.222 203.688,317.747C202.333,319.272 201.136,320.52 201.028,320.52C200.828,320.52 198.326,319.757 192.126,317.806L188.659,316.715L188.231,317.298C186.935,319.063 181.042,326.951 180.426,327.746C179.448,329.007 163.906,349.818 160.441,354.506C153.731,363.587 147.58,371.739 147.432,371.749C147.344,371.755 144.433,368.061 140.963,363.54L140.962,363.54ZM128.644,258.387C127.516,256.461 126.592,254.824 126.592,254.748C126.592,254.673 124.897,251.675 122.826,248.086C120.754,244.497 118.746,240.966 118.364,240.24C117.982,239.514 115.966,235.95 113.885,232.32C111.803,228.69 108.176,222.318 105.824,218.16C103.473,214.002 99.837,207.62 97.744,203.977L93.94,197.354L89.086,192.806C82.253,186.402 59.143,164.811 55.703,161.618L52.836,158.956L48.014,161.104C45.362,162.286 42.544,163.517 41.752,163.839C40.96,164.162 39.633,164.744 38.802,165.133C37.971,165.522 37.237,165.84 37.172,165.84C37.106,165.84 36.382,166.15 35.562,166.53C34.743,166.909 32.506,167.9 30.592,168.732C28.678,169.564 26.967,170.375 26.79,170.534C26.525,170.77 26.629,170.948 27.356,171.511C30.304,173.792 32.673,175.752 32.936,176.129C33.103,176.367 33.388,177.093 33.57,177.741C33.752,178.39 35.787,184.482 38.093,191.28C40.398,198.078 43.118,206.124 44.136,209.16C45.933,214.516 46.021,214.712 47.11,215.749C47.727,216.337 52.214,220.711 57.08,225.469C61.945,230.227 66.037,234.189 66.172,234.274C66.307,234.359 67.888,234.832 69.685,235.325C71.482,235.818 74.37,236.637 76.102,237.146C77.834,237.655 79.886,238.225 80.662,238.414C81.94,238.724 87.003,240.135 90.352,241.115C91.078,241.327 92.482,241.956 93.472,242.513C94.462,243.07 96.676,244.258 98.392,245.155C102.906,247.512 112.519,252.618 118.072,255.609C120.712,257.031 124.492,259.026 126.472,260.043C128.452,261.059 130.179,261.992 130.309,262.115C131.055,262.817 130.46,261.486 128.644,258.387ZM169.105,259.891C171.529,258.554 174.7,256.787 176.152,255.962C178.437,254.665 189.406,248.562 193.312,246.415C194.038,246.016 195.874,244.988 197.392,244.131C198.91,243.273 200.859,242.174 201.722,241.687C202.585,241.201 204.151,240.561 205.202,240.266C208.906,239.226 211.938,238.35 214.312,237.635C215.632,237.237 219.281,236.154 222.421,235.227L228.129,233.543L237.84,223.991C245.421,216.534 247.627,214.229 247.902,213.48C248.096,212.952 249.181,209.388 250.314,205.56C251.446,201.732 252.795,197.304 253.312,195.72C254.172,193.08 255.264,189.485 257.54,181.8C259.338,175.727 259.047,176.243 262.229,173.488C263.789,172.138 265.04,171.008 265.009,170.977C264.801,170.769 254.176,165.6 253.956,165.6C253.904,165.6 251.658,164.534 248.966,163.231C246.275,161.928 243.113,160.417 241.941,159.872L239.81,158.882L231.521,166.981C226.962,171.435 218.148,180.102 211.932,186.24C199.192,198.822 201.302,196.183 195.242,207.12C193.962,209.43 191.559,213.75 189.902,216.72C186.915,222.076 183.167,228.815 178.425,237.36C177.07,239.802 174.152,245.04 171.942,249C166.186,259.309 164.531,262.32 164.619,262.32C164.662,262.32 166.681,261.227 169.105,259.891Z" style="fill:none;fill-rule:nonzero;stroke:white;stroke-width:1.5px;"/>
</svg>
