<?xml version="1.0" encoding="UTF-8" standalone="no"?>
<!DOCTYPE svg PUBLIC "-//W3C//DTD SVG 1.1//EN" "http://www.w3.org/Graphics/SVG/1.1/DTD/svg11.dtd">
<svg width="100%" height="100%" viewBox="0 0 289 372" version="1.1" xmlns="http://www.w3.org/2000/svg" xmlns:xlink="http://www.w3.org/1999/xlink" xml:space="preserve" xmlns:serif="http://www.serif.com/" style="fill-rule:evenodd;clip-rule:evenodd;stroke-linejoin:round;stroke-miterlimit:2;">
    <g id="path2" transform="matrix(0.941881,0,0,0.941881,8.38239,10.8029)">
        <path d="M140.962,363.54C137.492,359.019 133.946,354.375 133.083,353.221C132.219,352.066 129.348,348.286 126.703,344.821C114.901,329.36 109.762,322.617 107.757,319.961C105.632,317.147 105.591,317.109 104.877,317.323C103.498,317.738 99.818,318.775 96.434,319.703L93.035,320.635L89.937,317.458C86.597,314.032 74.104,300.972 69.253,295.835C67.614,294.1 62.97,289.251 58.933,285.061C51.498,277.344 50.543,276.15 49.822,273.673C49.699,273.252 48.805,271.054 47.836,268.79L46.072,264.674L45.899,266.557C45.478,271.14 45.224,274.408 45.076,277.15C44.989,278.773 44.836,280.015 44.737,279.91C44.339,279.489 42.26,275.427 29.396,249.951C24.206,239.673 24.519,240.564 23.392,232.81C23.25,231.826 23.097,230.985 23.054,230.942C22.872,230.759 22.36,236.234 22.035,241.863C21.949,243.35 21.836,244.524 21.784,244.472C21.669,244.357 20.015,238.311 18.492,232.44C17.876,230.064 16.896,226.338 16.316,224.16C15.735,221.982 15.098,219.552 14.9,218.76C14.702,217.968 14.201,216.078 13.786,214.56C13.372,213.042 12.94,211.358 12.827,210.818C12.714,210.278 12.351,208.874 12.022,207.698C11.434,205.6 10.86,203.414 8.498,194.28C7.85,191.772 6.832,187.884 6.238,185.64C3.416,174.997 3.498,175.443 2.749,166.56C2.609,164.91 2.392,162.48 2.266,161.16C2.14,159.84 1.98,157.896 1.911,156.84C1.842,155.784 1.684,153.894 1.561,152.64C1.437,151.386 1.223,149.064 1.086,147.48C0.948,145.896 0.65,142.602 0.422,140.16C0.195,137.718 0.005,133.614 0.001,131.04C-0.008,126.579 0.066,123.777 0.595,108.36C0.722,104.664 0.885,99.21 0.957,96.24C1.029,93.27 1.149,89.946 1.222,88.854C1.356,86.868 1.356,86.868 2.174,86.526C3.084,86.146 3.115,85.996 3.017,82.38C2.962,80.37 2.994,80.35 4.906,81.194L6.161,81.748L7.101,85.574C7.618,87.678 8.511,91.29 9.086,93.6C9.66,95.91 10.379,98.907 10.684,100.26C10.989,101.613 11.302,102.72 11.38,102.72C11.458,102.72 11.486,100.263 11.442,97.26C11.355,91.247 11.2,92.296 14.015,79.8C14.401,78.084 15.06,75.06 15.479,73.08C15.898,71.1 16.604,68.076 17.049,66.36C17.493,64.644 18.68,60.054 19.686,56.16C20.693,52.266 22.033,47.19 22.666,44.88C23.298,42.57 24.223,39.06 24.721,37.08C25.219,35.1 25.705,33.391 25.8,33.282C25.895,33.173 26.042,33.605 26.128,34.242C26.213,34.879 26.55,36.912 26.876,38.76C27.202,40.608 27.902,44.712 28.433,47.88C28.963,51.048 29.773,55.8 30.232,58.44C31.811,67.526 31.866,68.095 32.151,78.48C32.477,90.357 32.97,104.458 33.063,104.551C33.169,104.657 36.226,99.296 41.156,90.36C43.705,85.74 46.261,81.144 46.836,80.147C47.869,78.356 47.891,78.272 48.59,73.307C49.347,67.928 49.847,64.538 50.395,61.08C50.583,59.892 51.015,56.868 51.355,54.36C52.171,48.33 52.168,48.348 52.551,48.753C52.721,48.933 53.319,49.944 53.881,51C54.442,52.056 56.59,55.836 58.654,59.4C60.718,62.964 62.666,66.366 62.984,66.96C63.301,67.554 64.621,69.857 65.916,72.078C67.212,74.299 68.272,76.164 68.272,76.221C68.272,76.278 70.824,81.535 73.943,87.903C78.88,97.982 81.639,103.681 82.628,105.84C82.839,106.3 82.875,104.819 82.785,99.48C82.721,95.652 82.616,91.71 82.553,90.72C82.49,89.73 82.372,85.572 82.29,81.48C82.208,77.388 82.056,71.664 81.954,68.76C81.715,62.01 81.93,23.829 82.299,7.2L82.387,3.24L84.15,1.996C85.119,1.312 86.038,0.745 86.191,0.736C86.345,0.728 89.717,5.067 93.686,10.38C97.655,15.693 105.018,25.548 110.049,32.28C115.08,39.012 120.094,45.87 121.191,47.52C124.077,51.863 131.152,62.871 131.152,63.019C131.152,63.089 133.69,67.079 136.792,71.888C139.894,76.696 142.432,80.69 142.432,80.764C142.432,80.838 143.223,82.11 144.189,83.589C145.154,85.069 146.15,86.631 146.4,87.06C146.651,87.489 146.93,87.84 147.02,87.84C147.209,87.84 149.303,84.515 155.03,75.12C157.243,71.49 159.627,67.602 160.327,66.48C161.028,65.358 163.679,61.041 166.219,56.886C168.76,52.732 172.081,47.548 173.601,45.366C175.121,43.185 177.285,40.05 178.411,38.4C179.537,36.75 181.399,34.05 182.548,32.4C183.696,30.75 186.165,27.186 188.033,24.48C189.901,21.774 193.149,17.076 195.251,14.04C197.353,11.004 200.389,6.603 201.998,4.26C203.607,1.917 205.001,0 205.097,0C205.192,0 206.082,0.873 207.073,1.94C209.219,4.25 208.961,2.581 209.514,17.76C209.724,23.502 210.048,31.926 210.235,36.48C210.897,52.584 210.952,54.94 210.898,64.8C210.868,70.278 210.718,81.702 210.565,90.187C210.412,98.672 210.333,105.661 210.391,105.718C210.499,105.827 211.04,104.63 214.189,97.32C215.212,94.944 216.864,91.11 217.859,88.8C222.025,79.126 223.249,76.544 226.907,69.706C229.022,65.754 232.394,59.415 234.402,55.619C236.533,51.59 238.12,48.843 238.215,49.019C238.305,49.185 238.454,49.806 238.546,50.4C238.639,50.994 239.076,53.208 239.519,55.32C239.961,57.432 240.663,60.942 241.079,63.12C241.494,65.298 242.139,68.592 242.512,70.44C242.884,72.288 243.427,74.98 243.717,76.423C244.199,78.814 244.453,79.441 246.582,83.503C247.867,85.954 249.785,89.526 250.845,91.44C251.906,93.354 253.419,96.162 254.209,97.68C256.738,102.544 258.152,105.12 258.289,105.12C258.363,105.12 258.352,100.827 258.265,95.58C257.957,77.045 258.041,68.743 258.584,64.08C258.853,61.77 259.178,58.8 259.305,57.48C259.755,52.837 260.252,48.111 260.379,47.28C260.45,46.818 260.781,43.754 261.114,40.471C261.447,37.188 261.77,34.421 261.831,34.322C261.967,34.102 263.838,34.423 264.101,34.711C264.291,34.921 265.596,39.688 267.476,47.04C268.033,49.218 268.858,52.378 269.31,54.061C269.761,55.745 270.442,58.337 270.822,59.821C271.792,63.614 273.767,71.169 275.448,77.52C276.234,80.49 277.031,83.599 277.218,84.429C277.692,86.525 278.979,91.225 279.159,91.516C279.241,91.649 279.299,92.793 279.288,94.059L279.268,96.36L279.941,93.6C280.311,92.082 280.848,89.814 281.134,88.56C282.669,81.833 282.536,82.186 283.979,80.998C284.699,80.405 285.364,79.92 285.457,79.92C285.55,79.92 285.577,81.45 285.517,83.32C285.427,86.142 285.47,86.764 285.766,86.981C286.12,87.24 286.162,87.649 286.566,94.8C286.629,95.922 286.731,97.542 286.793,98.4C286.854,99.258 286.964,101.796 287.037,104.04C287.11,106.284 287.22,108.606 287.282,109.2C287.407,110.399 287.774,117.454 287.999,123C288.079,124.98 288.24,127.95 288.356,129.6C288.559,132.479 288.469,134.723 287.894,141.12C287.758,142.638 287.537,145.5 287.405,147.48C287.141,151.418 286.588,158.322 286.175,162.84C286.031,164.424 285.832,168.852 285.734,172.68L285.555,179.64L284.066,185.64C283.247,188.94 282.097,193.476 281.511,195.72C280.309,200.321 276.597,215.13 274.292,224.52C273.45,227.952 272.546,231.516 272.283,232.44C272.02,233.364 271.422,235.686 270.955,237.6C270.487,239.514 269.958,241.62 269.78,242.28C269.455,243.48 269.455,243.48 269.313,242.64C269.097,241.355 268.23,235.021 268.049,233.4C267.749,230.718 267.552,230.992 267.261,234.494C267.103,236.4 266.919,238.39 266.852,238.916C266.741,239.78 264.513,244.721 260.194,253.68C259.335,255.462 257.286,259.782 255.641,263.28C249.727,275.855 247.926,279.562 247.776,279.469C247.629,279.378 247.404,277.249 247.169,273.72C247.108,272.796 246.953,270.976 246.825,269.675C246.697,268.374 246.591,266.754 246.589,266.075C246.583,264.01 246.287,264.071 245.281,266.344C244.771,267.497 244.008,269.196 243.585,270.12C243.162,271.044 242.562,272.394 242.252,273.12C241.941,273.846 241.519,274.788 241.314,275.214C240.883,276.106 237.139,280.396 225.967,292.8C224.957,293.922 222.349,296.838 220.172,299.28C217.996,301.722 213.951,306.252 211.184,309.347C208.417,312.442 205.044,316.222 203.688,317.747C202.333,319.272 201.136,320.52 201.028,320.52C200.828,320.52 198.326,319.757 192.126,317.806L188.659,316.715L188.231,317.298C186.935,319.063 181.042,326.951 180.426,327.746C179.448,329.007 163.906,349.818 160.441,354.506C153.731,363.587 147.58,371.739 147.432,371.749C147.344,371.755 144.433,368.061 140.963,363.54L140.962,363.54ZM128.644,258.387C127.516,256.461 126.592,254.824 126.592,254.748C126.592,254.673 124.897,251.675 122.826,248.086C120.754,244.497 118.746,240.966 118.364,240.24C117.982,239.514 115.966,235.95 113.885,232.32C111.803,228.69 108.176,222.318 105.824,218.16C103.473,214.002 99.837,207.62 97.744,203.977L93.94,197.354L89.086,192.806C82.253,186.402 59.143,164.811 55.703,161.618L52.836,158.956L48.014,161.104C45.362,162.286 42.544,163.517 41.752,163.839C40.96,164.162 39.633,164.744 38.802,165.133C37.971,165.522 37.237,165.84 37.172,165.84C37.106,165.84 36.382,166.15 35.562,166.53C34.743,166.909 32.506,167.9 30.592,168.732C28.678,169.564 26.967,170.375 26.79,170.534C26.525,170.77 26.629,170.948 27.356,171.511C30.304,173.792 32.673,175.752 32.936,176.129C33.103,176.367 33.388,177.093 33.57,177.741C33.752,178.39 35.787,184.482 38.093,191.28C40.398,198.078 43.118,206.124 44.136,209.16C45.933,214.516 46.021,214.712 47.11,215.749C47.727,216.337 52.214,220.711 57.08,225.469C61.945,230.227 66.037,234.189 66.172,234.274C66.307,234.359 67.888,234.832 69.685,235.325C71.482,235.818 74.37,236.637 76.102,237.146C77.834,237.655 79.886,238.225 80.662,238.414C81.94,238.724 87.003,240.135 90.352,241.115C91.078,241.327 92.482,241.956 93.472,242.513C94.462,243.07 96.676,244.258 98.392,245.155C102.906,247.512 112.519,252.618 118.072,255.609C120.712,257.031 124.492,259.026 126.472,260.043C128.452,261.059 130.179,261.992 130.309,262.115C131.055,262.817 130.46,261.486 128.644,258.387ZM169.105,259.891C171.529,258.554 174.7,256.787 176.152,255.962C178.437,254.665 189.406,248.562 193.312,246.415C194.038,246.016 195.874,244.988 197.392,244.131C198.91,243.273 200.859,242.174 201.722,241.687C202.585,241.201 204.151,240.561 205.202,240.266C208.906,239.226 211.938,238.35 214.312,237.635C215.632,237.237 219.281,236.154 222.421,235.227L228.129,233.543L237.84,223.991C245.421,216.534 247.627,214.229 247.902,213.48C248.096,212.952 249.181,209.388 250.314,205.56C251.446,201.732 252.795,197.304 253.312,195.72C254.172,193.08 255.264,189.485 257.54,181.8C259.338,175.727 259.047,176.243 262.229,173.488C263.789,172.138 265.04,171.008 265.009,170.977C264.801,170.769 254.176,165.6 253.956,165.6C253.904,165.6 251.658,164.534 248.966,163.231C246.275,161.928 243.113,160.417 241.941,159.872L239.81,158.882L231.521,166.981C226.962,171.435 218.148,180.102 211.932,186.24C199.192,198.822 201.302,196.183 195.242,207.12C193.962,209.43 191.559,213.75 189.902,216.72C186.915,222.076 183.167,228.815 178.425,237.36C177.07,239.802 174.152,245.04 171.942,249C166.186,259.309 164.531,262.32 164.619,262.32C164.662,262.32 166.681,261.227 169.105,259.891Z" style="fill:white;fill-rule:nonzero;"/>
        <path d="M146.996,78.048L146.93,77.93C146.482,77.171 144.102,73.426 141.253,69.01C138.515,64.766 135.792,60.447 135.792,60.447L135.8,60.475C135.71,60.293 135.607,60.105 135.489,59.911C134.303,57.958 128.241,48.537 125.612,44.582C124.498,42.906 119.411,35.939 114.302,29.102C109.271,22.37 101.908,12.516 97.939,7.203C94.196,2.192 90.942,-1.978 90.215,-2.759C88.289,-4.825 86.281,-4.586 85.898,-4.564L85.891,-4.564C85.512,-4.542 84.931,-4.476 84.204,-4.194C83.785,-4.032 82.445,-3.298 81.089,-2.341L77.14,0.446L76.992,7.082C76.621,23.794 76.409,62.164 76.649,68.948C76.751,71.833 76.901,77.52 76.982,81.586L76.992,82.049L76.669,81.387C76.077,80.168 75.485,78.949 74.892,77.73L73.171,74.173C73.116,74.04 73.053,73.903 72.981,73.761C72.785,73.372 71.748,71.54 70.502,69.403C69.25,67.257 67.973,65.033 67.666,64.459L67.666,64.459C67.342,63.853 65.355,60.378 63.248,56.74C61.225,53.247 59.118,49.543 58.568,48.508L58.568,48.508C57.701,46.878 56.67,45.383 56.407,45.105C54.949,43.564 53.256,43.268 52.214,43.295C50.854,43.33 49.365,43.732 48.076,45.403C47.787,45.776 47.346,46.406 47.039,47.551C46.866,48.2 46.608,49.856 46.094,53.647C45.76,56.111 45.337,59.082 45.152,60.249L45.152,60.249C44.6,63.733 44.095,67.148 43.333,72.567C42.834,76.116 42.977,76.214 42.238,77.494L42.238,77.494C41.746,78.347 39.814,81.814 37.673,85.693L37.457,78.334C37.162,67.553 37.102,66.963 35.462,57.531C35.004,54.899 34.197,50.162 33.668,47.003C33.135,43.82 32.431,39.695 32.103,37.838L32.103,37.838C31.793,36.078 31.47,34.143 31.389,33.537C31.061,31.089 29.714,29.583 29.285,29.221C28.059,28.187 26.772,27.916 25.624,27.961C24.335,28.011 22.972,28.448 21.799,29.792L21.799,29.793C21.602,30.018 21.193,30.5 20.843,31.359C20.662,31.805 20.108,33.66 19.573,35.785L19.573,35.785C19.082,37.738 18.169,41.2 17.546,43.478L17.546,43.478C16.909,45.803 15.56,50.912 14.547,54.832L14.547,54.832C13.54,58.725 12.354,63.314 11.91,65.029C11.45,66.805 10.719,69.933 10.286,71.981L10.286,71.981C9.968,73.483 9.511,75.592 9.14,77.26L7.049,76.337C3.414,74.733 1.314,75.648 0.401,76.221C-0.58,76.837 -2.401,78.415 -2.29,82.524L-2.276,83.197C-2.465,83.398 -2.632,83.608 -2.79,83.829C-3.259,84.483 -3.875,85.548 -4.074,88.496L-4.074,88.497C-4.15,89.623 -4.275,93.049 -4.35,96.111L-4.35,96.111C-4.422,99.068 -4.584,104.498 -4.71,108.178L-4.71,108.178C-5.244,123.725 -5.316,126.552 -5.308,131.05C-5.303,133.76 -5.103,138.081 -4.863,140.652L-4.863,140.652C-4.637,143.083 -4.34,146.362 -4.203,147.939L-4.203,147.939C-4.064,149.542 -3.847,151.892 -3.722,153.161L-3.722,153.161C-3.604,154.363 -3.452,156.174 -3.386,157.186L-3.386,157.186C-3.315,158.281 -3.149,160.297 -3.018,161.666C-2.893,162.971 -2.679,165.374 -2.541,167.006C-1.756,176.314 -1.85,175.849 1.106,187L1.106,187C1.699,189.236 2.713,193.11 3.359,195.609C5.738,204.813 6.318,207.016 6.91,209.131C7.204,210.177 7.53,211.426 7.631,211.906L7.631,211.907C7.754,212.491 8.216,214.315 8.665,215.958C9.069,217.436 9.557,219.276 9.749,220.047C9.95,220.851 10.597,223.317 11.186,225.528C11.765,227.697 12.74,231.407 13.354,233.773C14.762,239.2 16.285,244.771 16.66,245.917C17.154,247.424 17.891,248.086 18.031,248.226L18.031,248.226C19.691,249.885 21.485,250.13 23.262,249.577L24.658,252.344C38.1,278.967 40.462,283.114 40.878,283.555L40.879,283.556C42.126,284.876 43.527,285.243 44.824,285.225C46.09,285.207 47.786,284.849 49.117,282.947C49.19,282.843 49.274,282.717 49.36,282.567C50.747,284.151 52.602,286.141 55.11,288.744C59.133,292.92 63.76,297.751 65.393,299.48C70.259,304.631 82.787,317.728 86.136,321.163C86.136,321.163 91.42,326.582 91.42,326.582L97.837,324.823C99.817,324.28 101.896,323.7 103.57,323.225C105.611,325.928 110.767,332.693 122.483,348.042C125.115,351.49 127.972,355.252 128.832,356.401L128.832,356.401C129.7,357.561 133.263,362.228 136.751,366.772L137.346,367.548L137.352,367.55C140.331,371.424 142.812,374.561 143.365,375.179C145.346,377.398 147.496,377.065 147.773,377.047L147.784,377.046C147.999,377.031 149.953,377.059 151.744,374.89C152.924,373.461 158.59,365.943 164.71,357.661C168.162,352.99 183.646,332.256 184.62,331C185.078,330.409 188.417,325.947 190.674,322.914C197.836,325.165 200.795,325.829 201.028,325.829C201.533,325.829 202.816,325.838 204.299,324.714C204.662,324.439 206.102,323.022 207.656,321.273C209.01,319.75 212.378,315.976 215.141,312.885C217.91,309.789 221.957,305.256 224.135,302.812C226.305,300.378 228.904,297.471 229.912,296.353C236.37,289.182 240.453,284.524 242.907,281.613C243.539,283.052 244.491,283.68 244.983,283.984L244.984,283.985C246.148,284.704 247.542,285.054 249.225,284.581C249.732,284.438 251.035,284.109 252.214,282.433C252.692,281.754 254.849,277.438 260.445,265.539C262.082,262.058 264.121,257.759 264.976,255.985L264.976,255.985C266.367,253.1 267.544,250.584 268.515,248.443C268.7,248.484 268.841,248.504 268.921,248.512C270.122,248.635 271.431,248.423 272.721,247.427C272.977,247.23 274.192,246.297 274.904,243.668C275.087,242.989 275.631,240.826 276.112,238.86C276.562,237.017 277.136,234.782 277.389,233.892C277.658,232.947 278.586,229.299 279.448,225.785C281.747,216.42 285.449,201.65 286.647,197.062L286.647,197.062C287.237,194.804 288.394,190.239 289.218,186.919L290.847,180.356L291.04,172.816C291.135,169.123 291.323,164.851 291.462,163.322C291.878,158.767 292.435,151.805 292.701,147.835C292.832,145.893 293.047,143.085 293.181,141.596L293.181,141.596C293.799,134.728 293.87,132.318 293.652,129.227L293.652,129.227C293.538,127.616 293.382,124.717 293.303,122.784C293.072,117.104 292.69,109.878 292.562,108.65L292.562,108.649C292.505,108.098 292.41,105.947 292.343,103.868C292.267,101.541 292.152,98.91 292.088,98.02C292.028,97.182 291.928,95.598 291.866,94.501L291.866,94.501C291.547,88.849 291.359,86.933 291.179,86.188C291.065,85.714 290.937,85.313 290.796,84.97C290.799,84.555 290.806,84.024 290.823,83.489C290.902,81.023 290.712,78.965 290.607,78.578C289.605,74.878 286.627,74.611 285.457,74.611C284.995,74.611 284.195,74.65 283.19,75.113C282.882,75.255 281.835,75.905 280.744,76.788L280.58,76.162C278.903,69.826 276.933,62.288 275.964,58.505C275.581,57.006 274.893,54.387 274.437,52.686C273.989,51.016 273.171,47.884 272.619,45.725L272.619,45.725C270.853,38.816 269.552,34.099 269.168,33.064C268.748,31.93 268.224,31.355 268.027,31.139C267.628,30.7 266.936,30.095 265.883,29.663C264.885,29.253 262.895,28.907 261.89,28.946C259.207,29.049 257.84,30.682 257.316,31.53L257.316,31.531C257.2,31.717 256.791,32.331 256.582,33.482C256.475,34.069 256.153,36.778 255.833,39.935C255.512,43.089 255.2,46.033 255.132,46.477L255.132,46.477C255.001,47.332 254.484,52.193 254.021,56.969C253.896,58.268 253.576,61.192 253.311,63.466C252.887,67.108 252.721,72.921 252.807,83.912C252.263,82.897 251.734,81.898 251.284,81.039C249.573,77.775 249.309,77.296 248.921,75.375L247.716,69.391C247.346,67.557 246.706,64.287 246.293,62.125C245.872,59.921 245.162,56.369 244.714,54.232L244.714,54.232C244.296,52.236 243.879,50.145 243.792,49.584C243.582,48.236 243.087,46.867 242.883,46.492L242.883,46.491C241.846,44.577 240.257,43.722 238.254,43.703C237.505,43.696 235.916,43.739 234.349,45.339C233.934,45.764 232.012,48.784 229.709,53.137C227.705,56.926 224.337,63.256 222.226,67.202C219.563,72.18 218.162,74.948 216.039,79.706C216.124,73.873 216.188,68.217 216.207,64.829C216.261,54.883 216.206,52.507 215.539,36.262C215.352,31.714 215.028,23.301 214.819,17.567C214.536,9.795 214.433,6.251 214.161,4.373C213.924,2.733 213.532,1.742 213.088,0.939C212.606,0.067 212.004,-0.552 210.962,-1.673C209.677,-3.057 208.449,-4.15 208.128,-4.368C206.768,-5.29 205.622,-5.309 205.097,-5.309C204.623,-5.309 202.86,-5.395 201.153,-3.57C200.795,-3.187 199.292,-1.177 197.622,1.255C196.015,3.594 192.984,7.988 190.886,11.018C188.783,14.056 185.533,18.757 183.664,21.464C181.8,24.164 179.337,27.72 178.191,29.367C177.034,31.028 175.16,33.746 174.027,35.407L174.027,35.407C172.907,37.048 170.756,40.164 169.245,42.332L169.245,42.332C167.69,44.564 164.289,49.866 161.69,54.117L161.69,54.117C159.161,58.253 156.522,62.551 155.824,63.669L155.824,63.669C155.12,64.797 152.723,68.706 150.497,72.357C149.192,74.498 148.012,76.413 146.996,78.048ZM142.56,365.61L140.963,368.849L140.964,368.846L142.559,365.609L140.963,363.54L140.962,363.54C137.492,359.019 133.946,354.375 133.083,353.221C132.219,352.066 129.348,348.286 126.703,344.821C114.901,329.36 109.762,322.617 107.757,319.961C105.632,317.147 105.591,317.109 104.877,317.323C103.498,317.738 99.818,318.775 96.434,319.703L93.035,320.635L89.937,317.458C86.597,314.032 74.104,300.972 69.253,295.835C67.614,294.1 62.97,289.251 58.933,285.061C51.498,277.344 50.543,276.15 49.822,273.673C49.699,273.252 48.805,271.054 47.836,268.79L46.072,264.674L45.899,266.557C45.478,271.14 45.224,274.408 45.076,277.15C44.989,278.773 44.836,280.015 44.737,279.91C44.339,279.489 42.26,275.427 29.396,249.951C24.206,239.673 24.519,240.564 23.392,232.81C23.25,231.826 23.097,230.985 23.054,230.942C22.872,230.759 22.36,236.234 22.035,241.863C21.949,243.35 21.836,244.524 21.784,244.472C21.669,244.357 20.015,238.311 18.492,232.44C17.876,230.064 16.896,226.338 16.316,224.16C15.735,221.982 15.098,219.552 14.9,218.76C14.702,217.968 14.201,216.078 13.786,214.56C13.372,213.042 12.94,211.358 12.827,210.818C12.714,210.278 12.351,208.874 12.022,207.698C11.434,205.6 10.86,203.414 8.498,194.28C7.85,191.772 6.832,187.884 6.238,185.64C3.416,174.997 3.498,175.443 2.749,166.56C2.609,164.91 2.392,162.48 2.266,161.16C2.14,159.84 1.98,157.896 1.911,156.84C1.842,155.784 1.684,153.894 1.561,152.64C1.437,151.386 1.223,149.064 1.086,147.48C0.948,145.896 0.65,142.602 0.422,140.16C0.195,137.718 0.005,133.614 0.001,131.04C-0.008,126.579 0.066,123.777 0.595,108.36C0.722,104.664 0.885,99.21 0.957,96.24C1.029,93.27 1.149,89.946 1.222,88.854C1.356,86.868 1.356,86.868 2.174,86.526C3.084,86.146 3.115,85.996 3.017,82.38C2.962,80.37 2.994,80.35 4.906,81.194L6.161,81.748L7.101,85.574C7.618,87.678 8.511,91.29 9.086,93.6C9.66,95.91 10.379,98.907 10.684,100.26C10.989,101.613 11.302,102.72 11.38,102.72C11.458,102.72 11.486,100.263 11.442,97.26C11.355,91.247 11.2,92.296 14.015,79.8C14.401,78.084 15.06,75.06 15.479,73.08C15.898,71.1 16.604,68.076 17.049,66.36C17.493,64.644 18.68,60.054 19.686,56.16C20.693,52.266 22.033,47.19 22.666,44.88C23.298,42.57 24.223,39.06 24.721,37.08C25.219,35.1 25.705,33.391 25.8,33.282C25.895,33.173 26.042,33.605 26.128,34.242C26.213,34.879 26.55,36.912 26.876,38.76C27.202,40.608 27.902,44.712 28.433,47.88C28.963,51.048 29.773,55.8 30.232,58.44C31.811,67.526 31.866,68.095 32.151,78.48C32.477,90.357 32.97,104.458 33.063,104.551C33.169,104.657 36.226,99.296 41.156,90.36C43.705,85.74 46.261,81.144 46.836,80.147C47.869,78.356 47.891,78.272 48.59,73.307C49.347,67.928 49.847,64.538 50.395,61.08C50.583,59.892 51.015,56.868 51.355,54.36C52.171,48.33 52.168,48.348 52.551,48.753C52.721,48.933 53.319,49.944 53.881,51C54.442,52.056 56.59,55.836 58.654,59.4C60.718,62.964 62.666,66.366 62.984,66.96C63.301,67.554 64.621,69.857 65.916,72.078C67.212,74.299 68.272,76.164 68.272,76.221C68.272,76.278 70.824,81.535 73.943,87.903C78.88,97.982 81.639,103.681 82.628,105.84C82.839,106.3 82.875,104.819 82.785,99.48C82.721,95.652 82.616,91.71 82.553,90.72C82.49,89.73 82.372,85.572 82.29,81.48C82.208,77.388 82.056,71.664 81.954,68.76C81.715,62.01 81.93,23.829 82.299,7.2L82.387,3.24L84.15,1.996C85.119,1.312 86.038,0.745 86.191,0.736C86.345,0.728 89.717,5.067 93.686,10.38C97.655,15.693 105.018,25.548 110.049,32.28C115.08,39.012 120.094,45.87 121.191,47.52C124.077,51.863 131.152,62.871 131.152,63.019C131.152,63.089 133.69,67.079 136.792,71.888C139.894,76.696 142.432,80.69 142.432,80.764C142.432,80.838 143.223,82.11 144.189,83.589C145.154,85.069 146.15,86.631 146.4,87.06C146.651,87.489 146.93,87.84 147.02,87.84C147.209,87.84 149.303,84.515 155.03,75.12C157.243,71.49 159.627,67.602 160.327,66.48C161.028,65.358 163.679,61.041 166.219,56.886C168.76,52.732 172.081,47.548 173.601,45.366C175.121,43.185 177.285,40.05 178.411,38.4C179.537,36.75 181.399,34.05 182.548,32.4C183.696,30.75 186.165,27.186 188.033,24.48C189.901,21.774 193.149,17.076 195.251,14.04C197.353,11.004 200.389,6.603 201.998,4.26C203.607,1.917 205.001,0 205.097,0C205.192,0 206.082,0.873 207.073,1.94C209.219,4.25 208.961,2.581 209.514,17.76C209.724,23.502 210.048,31.926 210.235,36.48C210.897,52.584 210.952,54.94 210.898,64.8C210.868,70.278 210.718,81.702 210.565,90.187C210.412,98.672 210.333,105.661 210.391,105.718C210.499,105.827 211.04,104.63 214.189,97.32C215.212,94.944 216.864,91.11 217.859,88.8C222.025,79.126 223.249,76.544 226.907,69.706C229.022,65.754 232.394,59.415 234.402,55.619C236.533,51.59 238.12,48.843 238.215,49.019C238.305,49.185 238.454,49.806 238.546,50.4C238.639,50.994 239.076,53.208 239.519,55.32C239.961,57.432 240.663,60.942 241.079,63.12C241.494,65.298 242.139,68.592 242.512,70.44C242.884,72.288 243.427,74.98 243.717,76.423C244.199,78.814 244.453,79.441 246.582,83.503C247.867,85.954 249.785,89.526 250.845,91.44C251.906,93.354 253.419,96.162 254.209,97.68C256.738,102.544 258.152,105.12 258.289,105.12C258.363,105.12 258.352,100.827 258.265,95.58C257.957,77.045 258.041,68.743 258.584,64.08C258.853,61.77 259.178,58.8 259.305,57.48C259.755,52.837 260.252,48.111 260.379,47.28C260.45,46.818 260.781,43.754 261.114,40.471C261.447,37.188 261.77,34.421 261.831,34.322C261.967,34.102 263.838,34.423 264.101,34.711C264.291,34.921 265.596,39.688 267.476,47.04C268.033,49.218 268.858,52.378 269.31,54.061C269.761,55.745 270.442,58.337 270.822,59.821C271.792,63.614 273.767,71.169 275.448,77.52C276.234,80.49 277.031,83.599 277.218,84.429C277.692,86.525 278.979,91.225 279.159,91.516C279.241,91.649 279.299,92.793 279.288,94.059L279.268,96.36L279.941,93.6C280.311,92.082 280.848,89.814 281.134,88.56C282.669,81.833 282.536,82.186 283.979,80.998C284.699,80.405 285.364,79.92 285.457,79.92C285.55,79.92 285.577,81.45 285.517,83.32C285.427,86.142 285.47,86.764 285.766,86.981C286.12,87.24 286.162,87.649 286.566,94.8C286.629,95.922 286.731,97.542 286.793,98.4C286.854,99.258 286.964,101.796 287.037,104.04C287.11,106.284 287.22,108.606 287.282,109.2C287.407,110.399 287.774,117.454 287.999,123C288.079,124.98 288.24,127.95 288.356,129.6C288.559,132.479 288.469,134.723 287.894,141.12C287.758,142.638 287.537,145.5 287.405,147.48C287.141,151.418 286.588,158.322 286.175,162.84C286.031,164.424 285.832,168.852 285.734,172.68L285.555,179.64L284.066,185.64C283.247,188.94 282.097,193.476 281.511,195.72C280.309,200.321 276.597,215.13 274.292,224.52C273.45,227.952 272.546,231.516 272.283,232.44C272.02,233.364 271.422,235.686 270.955,237.6C270.487,239.514 269.958,241.62 269.78,242.28C269.455,243.48 269.455,243.48 269.313,242.64C269.097,241.355 268.23,235.021 268.049,233.4C267.749,230.718 267.552,230.992 267.261,234.494C267.103,236.4 266.919,238.39 266.852,238.916C266.741,239.78 264.513,244.721 260.194,253.68C259.335,255.462 257.286,259.782 255.641,263.28C249.727,275.855 247.926,279.562 247.776,279.469C247.629,279.378 247.404,277.249 247.169,273.72C247.108,272.796 246.953,270.976 246.825,269.675C246.697,268.374 246.591,266.754 246.589,266.075C246.583,264.01 246.287,264.071 245.281,266.344C244.771,267.497 244.008,269.196 243.585,270.12C243.162,271.044 242.562,272.394 242.252,273.12C241.941,273.846 241.519,274.788 241.314,275.214C240.883,276.106 237.139,280.396 225.967,292.8C224.957,293.922 222.349,296.838 220.172,299.28C217.996,301.722 213.951,306.252 211.184,309.347C208.417,312.442 205.044,316.222 203.688,317.747C202.333,319.272 201.136,320.52 201.028,320.52C200.828,320.52 198.326,319.757 192.126,317.806L188.659,316.715L188.231,317.298C186.935,319.063 181.042,326.951 180.426,327.746C179.448,329.007 163.906,349.818 160.441,354.506C153.731,363.587 147.58,371.739 147.432,371.749C147.358,371.754 145.283,369.137 142.56,365.61ZM169.105,259.891C171.529,258.554 174.7,256.787 176.152,255.962C178.437,254.665 189.406,248.562 193.312,246.415C194.038,246.016 195.874,244.988 197.392,244.131C198.91,243.273 200.859,242.174 201.722,241.687C202.585,241.201 204.151,240.561 205.202,240.266C208.906,239.226 211.938,238.35 214.312,237.635C215.632,237.237 219.281,236.154 222.421,235.227L228.129,233.543L237.84,223.991C245.421,216.534 247.627,214.229 247.902,213.48C248.096,212.952 249.181,209.388 250.314,205.56C251.446,201.732 252.795,197.304 253.312,195.72C254.172,193.08 255.264,189.485 257.54,181.8C259.338,175.727 259.047,176.243 262.229,173.488C263.789,172.138 265.04,171.008 265.009,170.977C264.801,170.769 254.176,165.6 253.956,165.6C253.904,165.6 251.658,164.534 248.966,163.231C246.275,161.928 243.113,160.417 241.941,159.872L239.81,158.882L231.521,166.981C226.962,171.435 218.148,180.102 211.932,186.24C199.192,198.822 201.302,196.183 195.242,207.12C193.962,209.43 191.559,213.75 189.902,216.72C186.915,222.076 183.167,228.815 178.425,237.36C177.07,239.802 174.152,245.04 171.942,249C166.186,259.309 164.531,262.32 164.619,262.32C164.662,262.32 166.681,261.227 169.105,259.891ZM128.644,258.387C127.516,256.461 126.592,254.824 126.592,254.748C126.592,254.673 124.897,251.675 122.826,248.086C120.754,244.497 118.746,240.966 118.364,240.24C117.982,239.514 115.966,235.95 113.885,232.32C111.803,228.69 108.176,222.318 105.824,218.16C103.473,214.002 99.837,207.62 97.744,203.977L93.94,197.354L89.086,192.806C82.253,186.402 59.143,164.811 55.703,161.618L52.836,158.956L48.014,161.104C45.362,162.286 42.544,163.517 41.752,163.839C40.96,164.162 39.633,164.744 38.802,165.133C37.971,165.522 37.237,165.84 37.172,165.84C37.106,165.84 36.382,166.15 35.562,166.53C34.743,166.909 32.506,167.9 30.592,168.732C28.678,169.564 26.967,170.375 26.79,170.534C26.525,170.77 26.629,170.948 27.356,171.511C30.304,173.792 32.673,175.752 32.936,176.129C33.103,176.367 33.388,177.093 33.57,177.741C33.752,178.39 35.787,184.482 38.093,191.28C40.398,198.078 43.118,206.124 44.136,209.16C45.933,214.516 46.021,214.712 47.11,215.749C47.727,216.337 52.214,220.711 57.08,225.469C61.945,230.227 66.037,234.189 66.172,234.274C66.307,234.359 67.888,234.832 69.685,235.325C71.482,235.818 74.37,236.637 76.102,237.146C77.834,237.655 79.886,238.225 80.662,238.414C81.94,238.724 87.003,240.135 90.352,241.115C91.078,241.327 92.482,241.956 93.472,242.513C94.462,243.07 96.676,244.258 98.392,245.155C102.906,247.512 112.519,252.618 118.072,255.609C120.712,257.031 124.492,259.026 126.472,260.043C128.452,261.059 130.179,261.992 130.309,262.115C131.055,262.817 130.46,261.486 128.644,258.387ZM117.339,249.193C111.801,246.227 104.585,242.4 100.85,240.449C99.184,239.579 97.035,238.426 96.075,237.886C94.735,237.133 92.825,236.307 91.842,236.02L91.842,236.02C88.411,235.016 83.224,233.573 81.914,233.255C81.18,233.077 79.238,232.535 77.598,232.053C75.841,231.537 72.912,230.705 71.089,230.205C70.372,230.009 69.546,229.767 68.948,229.589C67.53,228.222 64.109,224.918 60.791,221.674C55.901,216.892 51.392,212.496 50.772,211.905C50.541,211.685 50.571,211.533 50.356,210.939C50.061,210.128 49.69,209.024 49.169,207.472C48.15,204.433 45.427,196.379 43.12,189.575C40.86,182.912 38.86,176.942 38.681,176.307C38.313,174.993 37.624,173.569 37.286,173.086L37.286,173.086C37.181,172.936 36.817,172.566 36.247,172.041L37.792,171.347C38.261,171.13 38.926,170.844 38.926,170.844C38.926,170.844 37.868,171.045 37.389,171.118C37.953,171.022 39.478,170.677 41.053,169.94C41.813,169.584 43.029,169.051 43.754,168.756C44.566,168.425 47.456,167.165 50.175,165.953C50.175,165.953 51.794,165.232 51.794,165.232C51.794,165.232 52.091,165.508 52.091,165.508C55.529,168.7 78.627,190.279 85.456,196.679C85.456,196.679 89.732,200.686 89.732,200.686C89.732,200.686 93.141,206.621 93.141,206.621C95.229,210.256 98.857,216.624 101.204,220.773C103.56,224.939 107.194,231.324 109.279,234.96L109.279,234.961C111.317,238.514 113.293,242.002 113.667,242.713L113.667,242.713C114.003,243.351 115.562,246.104 117.339,249.193ZM240.89,165.248C242.384,165.953 244.65,167.04 246.654,168.009C249.177,169.231 251.325,170.249 251.77,170.441C251.904,170.5 252.034,170.551 252.159,170.595L252.153,170.594L255.633,172.287C254.409,173.67 253.96,175.193 252.449,180.293C250.197,187.901 249.116,191.461 248.265,194.075C247.741,195.681 246.372,200.172 245.223,204.054L245.223,204.054C244.34,207.039 243.492,209.859 243.104,211.079C242.309,211.924 239.084,215.321 234.117,220.207C234.117,220.207 225.353,228.827 225.353,228.827C225.353,228.827 220.918,230.136 220.918,230.136C217.768,231.066 214.106,232.153 212.782,232.552C210.432,233.259 207.431,234.126 203.766,235.155C202.361,235.55 200.27,236.412 199.116,237.062L194.782,239.508C193.284,240.355 191.472,241.369 190.755,241.763C188.143,243.199 182.383,246.398 178.153,248.758L183.067,239.936C187.806,231.395 191.552,224.659 194.538,219.306C196.197,216.332 198.603,212.006 199.885,209.693L199.885,209.693C205.603,199.374 203.643,201.888 215.663,190.017C221.871,183.885 230.677,175.228 235.231,170.778L240.89,165.248Z"/>
    </g>
</svg>
