<?xml version="1.0" encoding="UTF-8" standalone="no"?>
<!-- Created with Inkscape (http://www.inkscape.org/) -->

<svg
   width="101.76051mm"
   height="131.14487mm"
   viewBox="0 0 101.76051 131.14487"
   version="1.1"
   id="svg1"
   xml:space="preserve"
   xmlns:inkscape="http://www.inkscape.org/namespaces/inkscape"
   xmlns:sodipodi="http://sodipodi.sourceforge.net/DTD/sodipodi-0.dtd"
   xmlns="http://www.w3.org/2000/svg"
   xmlns:svg="http://www.w3.org/2000/svg"><sodipodi:namedview
     id="namedview1"
     pagecolor="#000000"
     bordercolor="#000000"
     borderopacity="0.25"
     inkscape:showpageshadow="2"
     inkscape:pageopacity="0.0"
     inkscape:pagecheckerboard="0"
     inkscape:deskcolor="#d1d1d1"
     inkscape:document-units="mm"
     inkscape:export-bgcolor="#ffffff00"><inkscape:page
       x="0"
       y="0"
       width="101.76051"
       height="131.14487"
       id="page2"
       margin="0"
       bleed="0" /></sodipodi:namedview><defs
     id="defs1" /><path
     style="fill:#ffffff;fill-opacity:1"
     d="m 49.72834,128.24883 c -1.224211,-1.5949 -2.475101,-3.23306 -2.779757,-3.64034 -0.304655,-0.40728 -1.317456,-1.74078 -2.250668,-2.96333 -4.16332,-5.45415 -5.976173,-7.83293 -6.683675,-8.77013 -0.749443,-0.99276 -0.764115,-1.00619 -1.016,-0.93042 -0.486487,0.14635 -1.784693,0.5123 -2.978523,0.8396 l -1.198948,0.32871 -1.092834,-1.12096 c -1.17828,-1.2086 -5.585553,-5.81575 -7.297063,-7.62798 -0.57812,-0.61214 -2.21642,-2.32253 -3.64067,-3.80087 -2.62275,-2.72236 -2.95966,-3.14344 -3.21417,-4.01721 -0.0433,-0.14873 -0.35865,-0.92391 -0.70073,-1.722619 l -0.62197,-1.45221 -0.0611,0.66429 c -0.14865,1.616899 -0.238215,2.769739 -0.290345,3.737149 -0.0309,0.57246 -0.0846,1.01061 -0.11953,0.97366 -0.14041,-0.1487 -0.87411,-1.5815 -5.412,-10.568879 -1.8309001,-3.62613 -1.7207401,-3.31162 -2.1180201,-6.04708 -0.0504,-0.34729 -0.1041,-0.64384 -0.11926,-0.65899 -0.0645,-0.0645 -0.24482,1.86683 -0.35966,3.85271 -0.0303,0.52448 -0.0701,0.93864 -0.0884,0.92035 -0.0405,-0.0405 -0.62403,-2.17336 -1.16134,-4.24462 -0.21744,-0.8382 -0.5630004,-2.15265 -0.7679204,-2.921 -0.20492,-0.76835 -0.42969,-1.6256 -0.49949,-1.905 -0.0698,-0.2794 -0.24656,-0.94615 -0.39279,-1.48167 -0.14624,-0.53551 -0.29856,-1.12954 -0.33848,-1.32006 -0.0399,-0.19051 -0.16771,-0.68581 -0.28397,-1.10066 -0.20743,-0.74017 -0.40998,-1.51148 -1.24305,-4.73361 -0.22876,-0.88477 -0.58763,-2.25637 -0.79751,-3.048 -0.99537,-3.75446 -0.96662,-3.59726 -1.23083995,-6.731 -0.0491,-0.58208 -0.12568,-1.43933 -0.17024,-1.905 -0.0446,-0.46567 -0.10093,-1.15147 -0.12528,-1.524 -0.0243,-0.37253 -0.0799,-1.03928 -0.12356,-1.48167 -0.0436,-0.44238 -0.119,-1.26153 -0.16754,-1.82033 -0.0485,-0.5588 -0.15385,-1.72085 -0.23405,-2.58233 -0.0802,-0.86149 -0.14712,-2.30929 -0.14874000208,-3.21734 -0.002999998,-1.57358 0.0231000021,-2.56238 0.20975000208,-8.001 0.0448,-1.30386 0.1022,-3.22791 0.12767,-4.27566 0.0255,-1.04775 0.0676,-2.22028 0.0936,-2.60561 0.0473,-0.70062 0.0473,-0.70062 0.33583,-0.82118 0.32100995,-0.13413 0.33176995,-0.1871 0.29721995,-1.46271 -0.0192,-0.70903 -0.008,-0.71606 0.66641,-0.41842 l 0.44278,0.19541 0.33171,1.34976 c 0.18244,0.74236 0.49746,2.0165 0.70005,2.83142 0.20259,0.81491 0.45637,1.87219 0.56396,2.3495 0.1076,0.4773 0.21804,0.86783 0.24544,0.86783 0.0274,0 0.0373,-0.86678 0.0219,-1.92617 -0.0307,-2.12126 -0.0853,-1.75112 0.90764,-6.1595 0.13635,-0.60536 0.3688,-1.67216 0.51655,-2.37066 0.14776,-0.6985 0.39689,-1.7653 0.55364,-2.37067 0.15674,-0.60537 0.5754704,-2.22462 0.9305004,-3.59833 0.35504,-1.37372 0.82804,-3.16442 1.05111,-3.97934 0.22308,-0.81491 0.54938,-2.05316 0.72511,-2.75166 0.17574,-0.6985 0.34695,-1.30144 0.38046,-1.33987 0.0335,-0.0384 0.0856,0.11397 0.11568,0.33867 0.0301,0.22469 0.14886,0.94193 0.26389,1.59386 0.11503,0.65194 0.36224,2.09974 0.5493501,3.21734 0.18711,1.1176 0.47269,2.794 0.63461,3.72533 0.55729,3.20535 0.57651,3.40605 0.67707,7.06967 0.11502,4.19004 0.28907,9.16448 0.32181,9.19722 0.0373,0.0373 1.1157,-1.85376 2.85491,-5.00622 0.89918,-1.62984 1.800955,-3.25115 2.003935,-3.60292 0.36449,-0.63165 0.37216,-0.66156 0.61857,-2.413 0.26698,-1.89769 0.44351,-3.09346 0.63677,-4.31342 0.0664,-0.4191 0.21878,-1.4859 0.33863,-2.37066 0.28815,-2.12717 0.2868,-2.12085 0.42205,-1.97786 0.0599,0.0633 0.27101,0.41999 0.46908,0.79252 0.19807,0.37254 0.95586,1.70604 1.68398,2.96334 0.72813,1.2573 1.41543,2.45745 1.52734,2.667 0.1119,0.20955 0.57748,1.02208 1.0346,1.80562 0.45713,0.78355 0.83114,1.44117 0.83114,1.46139 0,0.0202 0.90022,1.87469 2.00049,4.12104 1.741644,3.5558 2.715084,5.56632 3.063832,6.32795 0.07435,0.16237 0.08728,-0.36007 0.05551,-2.24367 -0.02277,-1.35043 -0.05958,-2.74108 -0.0818,-3.09033 -0.02222,-0.34925 -0.06408,-1.8161 -0.09304,-3.25967 -0.02895,-1.44357 -0.08227,-3.46287 -0.118474,-4.48733 -0.08416,-2.38125 -0.0085,-15.8505105 0.121917,-21.7170007 l 0.03107,-1.397 0.621743,-0.43883006 c 0.341959,-0.24135 0.666029,-0.44137 0.720157,-0.4445 0.05413,-0.003 1.243935,1.52785006 2.644018,3.40216006 1.400083,1.8743102 3.997736,5.3509302 5.772561,7.7258307 1.774826,2.3749 3.543498,4.79425 3.930383,5.37634 1.018339,1.53213 3.51429,5.41548 3.51429,5.46774 0,0.0245 0.89535,1.43234 1.989667,3.1286 1.094316,1.69625 1.989666,3.10543 1.989666,3.13151 0,0.0261 0.2788,0.47456 0.619554,0.99662 0.340755,0.52205 0.69187,1.07302 0.780255,1.22436 0.08839,0.15134 0.18681,0.27517 0.218721,0.27517 0.06645,0 0.805128,-1.1731 2.825601,-4.48734 0.780687,-1.28058 1.621632,-2.65218 1.868765,-3.048 0.247133,-0.39581 1.182534,-1.91881 2.078667,-3.38444 0.896134,-1.46562 2.067946,-3.29442 2.604027,-4.064 0.536081,-0.76957 1.299736,-1.87547 1.697012,-2.45756 0.397276,-0.58208 1.053898,-1.53458 1.459159,-2.11666 0.405261,-0.58209 1.276059,-1.8393905 1.935108,-2.7940005 0.659049,-0.95462 1.804902,-2.61197 2.54634,-3.6830002 0.741439,-1.07104 1.812485,-2.62361 2.380102,-3.45017 C 71.82788,0.67627024 72.319891,2.4120362e-7 72.35362,2.4120362e-7 c 0.03373,0 0.347422,0.30794999879638 0.697095,0.68433999879638 0.757116,0.81496006 0.666258,0.22623 0.861305,5.58099026 0.07378,2.02565 0.188162,4.9974505 0.254174,6.6040005 0.233433,5.6812 0.252898,6.51236 0.233964,9.99067 -0.01052,1.93251 -0.0634,5.96269 -0.117504,8.95594 -0.05411,2.99325 -0.08179,5.45886 -0.06151,5.47914 0.03818,0.0382 0.229086,-0.38391 1.339968,-2.96275 0.36107,-0.8382 0.943657,-2.19075 1.294637,-3.00567 1.469859,-3.41276 1.901433,-4.32348 3.192047,-6.73593 0.745914,-1.39429 1.935706,-3.63058 2.643982,-4.96953 0.751823,-1.42128 1.311704,-2.3903 1.345272,-2.32833 0.03162,0.0584 0.08417,0.27758 0.116763,0.48713 0.0326,0.20955 0.18695,0.9906 0.34301,1.73566 0.15606,0.74507 0.403723,1.98332 0.550361,2.75167 0.146639,0.76835 0.374128,1.9304 0.505532,2.58233 0.131404,0.65194 0.322829,1.60177 0.42539,2.11074 0.169961,0.84346 0.259444,1.06464 1.010483,2.49767 0.453205,0.86474 1.13004,2.12471 1.504077,2.79993 0.374038,0.67521 0.907969,1.66581 1.186513,2.20133 0.892443,1.71577 1.39094,2.62467 1.439534,2.62467 0.02604,0 0.02218,-1.51448 -0.0086,-3.3655 -0.108623,-6.53889 -0.07895,-9.46767 0.11258,-11.1125 0.09489,-0.81492 0.209395,-1.86267 0.254451,-2.32834 0.158478,-1.6379 0.334038,-3.30513 0.378904,-3.59833 0.02494,-0.16298 0.141562,-1.24395 0.259157,-2.40215 0.117596,-1.15821 0.231419,-2.13432 0.252939,-2.16914 0.04804,-0.0777 0.708048,0.0355 0.800685,0.13733 0.06732,0.074 0.527713,1.75573 1.190693,4.34929 0.196409,0.76835 0.487519,1.883 0.646911,2.47699 0.159392,0.59399 0.399439,1.50839 0.533436,2.032 0.342365,1.33782 1.039048,4.00308 1.632058,6.24368 0.2773,1.04775 0.55833,2.14454 0.6245,2.43732 0.16711,0.73941 0.62124,2.39743 0.68483,2.50032 0.0289,0.0467 0.0493,0.45031 0.0453,0.89684 l -0.007,0.81185 0.23734,-0.97366 c 0.13055,-0.53552 0.31993,-1.33562 0.42085,-1.778 0.54142,-2.37318 0.49455,-2.24859 1.003743,-2.66779 0.25402,-0.20912 0.48866,-0.38021 0.52143,-0.38021 0.0328,0 0.0424,0.53971 0.0213,1.19937 -0.0318,0.99564 -0.0169,1.21503 0.0878,1.29155 0.12482,0.0913 0.13959,0.23574 0.28201,2.75841 0.0223,0.39582 0.0584,0.96732 0.0801,1.27 0.0217,0.30268 0.0605,1.19803 0.0862,1.98967 0.0257,0.79163 0.0646,1.61078 0.0865,1.82033 0.0441,0.42298 0.1733,2.91174 0.25275,4.86833 0.0284,0.6985 0.0851,1.74625 0.12617,2.32833 0.0716,1.01582 0.0398,1.80746 -0.16307,4.064 -0.0482,0.53552 -0.12586,1.54517 -0.17269,2.24367 -0.0931,1.38913 -0.28803,3.82474 -0.43364,5.41867 -0.051,0.5588 -0.12118,2.1209 -0.15586,3.47133 l -0.0631,2.45533 -0.52527,2.11667 c -0.288913,1.16417 -0.694483,2.76437 -0.901273,3.556 -0.42399,1.62304 -1.73345,6.84744 -2.54655,10.16 -0.29718,1.21073 -0.616204,2.46803 -0.708939,2.794 -0.09273,0.32597 -0.303564,1.14512 -0.46851,1.82033 -0.164946,0.67522 -0.351489,1.41817 -0.414541,1.651 -0.114639,0.42334 -0.114639,0.42334 -0.16455,0.127 -0.07637,-0.45345 -0.382192,-2.68764 -0.446188,-3.25966 -0.105848,-0.94614 -0.175335,-0.84954 -0.277701,0.38607 -0.05571,0.67243 -0.120741,1.3744 -0.144517,1.55993 -0.03907,0.30487 -0.824989,2.04774 -2.348608,5.20833 -0.303053,0.62865 -1.025837,2.15265 -1.606189,3.38667 -2.086334,4.436229 -2.721725,5.744059 -2.774743,5.711289 -0.0519,-0.0321 -0.131134,-0.78343 -0.213908,-2.02829 -0.02167,-0.32597 -0.07631,-0.96818 -0.121422,-1.427139 -0.04511,-0.45896 -0.0826,-1.03046 -0.08331,-1.27 -0.0022,-0.72843 -0.106448,-0.70697 -0.461335,0.095 -0.179997,0.40674 -0.449335,1.00622 -0.598527,1.332189 -0.149193,0.32596 -0.36084,0.80221 -0.470328,1.05833 -0.109487,0.25612 -0.258374,0.58848 -0.33086,0.73859 -0.152043,0.31487 -1.472777,1.82835 -5.413957,6.20407 -0.356508,0.39582 -1.276454,1.42452 -2.044322,2.286 -0.767869,0.86149 -2.194782,2.4596 -3.170916,3.55136 -0.976135,1.09176 -2.166041,2.42526 -2.644235,2.96333 -0.478194,0.53808 -0.90055,0.97832 -0.938567,0.97832 -0.07041,0 -0.952975,-0.26907 -3.140444,-0.95745 l -1.223122,-0.38491 -0.150872,0.20552 c -0.457223,0.62282 -2.536009,3.40557 -2.753574,3.68605 -0.344962,0.44472 -5.827719,7.78641 -7.050001,9.44032 -2.36735,3.20333 -4.537158,6.07938 -4.589217,6.08294 -0.03112,0.002 -1.058204,-1.30106 -2.282415,-2.89597 z M 45.382844,91.153231 c -0.398115,-0.67944 -0.723846,-1.2571 -0.723846,-1.28369 0,-0.0266 -0.597964,-1.08428 -1.328807,-2.35044 -0.730844,-1.26616 -1.439145,-2.51166 -1.574002,-2.76777 -0.134857,-0.25612 -0.845946,-1.51342 -1.580198,-2.794 -0.734252,-1.28059 -2.013812,-3.52849 -2.843466,-4.99534 -0.829654,-1.46685 -2.112392,-3.71838 -2.85053,-5.0034 l -1.342068,-2.3364 -1.712298,-1.60469 c -2.410522,-2.25903 -10.563317,-9.87569 -11.776777,-11.00232 l -1.01152,-0.93915 -1.701,0.75801 c -0.935555,0.41691 -1.929605,0.85107 -2.209005,0.9648 -0.2794,0.11373 -0.74784,0.31906 -1.04097,0.4563 -0.29313,0.13724 -0.55189,0.24952 -0.57503,0.24952 -0.0231,0 -0.2786,0.10948 -0.5677,0.24328 -0.2891,0.1338 -1.07808,0.48343 -1.7533,0.77695 -0.67522,0.29352 -1.2789301,0.57957 -1.3415801,0.63567 -0.0932,0.0834 -0.0568,0.14618 0.19999,0.34487 1.0398601,0.8046 1.8754501,1.49605 1.9683201,1.62881 0.0589,0.0842 0.15958,0.34017 0.22377,0.56889 0.0642,0.22873 0.78212,2.37801 1.59541,4.7762 0.8133,2.39818 1.77269,5.23663 2.13199,6.30766 0.633895,1.88957 0.665015,1.95852 1.049185,2.3245 0.21776,0.20744 1.80039,1.75049 3.51697,3.429 1.71658,1.67851 3.16003,3.07634 3.20768,3.10628 0.0476,0.0299 0.60532,0.19671 1.23928,0.3706 0.63396,0.17388 1.65261,0.46301 2.26366,0.64251 0.61105,0.1795 1.33495,0.38073 1.608665,0.44719 0.451043,0.10951 2.237031,0.60728 3.418665,0.95282 0.256116,0.0749 0.751416,0.29687 1.100666,0.49328 0.34925,0.19641 1.1303,0.61576 1.735667,0.9319 1.592409,0.83159 4.983536,2.6331 6.942666,3.68823 0.931333,0.50158 2.264833,1.2054 2.963333,1.56403 0.6985,0.35863 1.307624,0.68753 1.353608,0.73087 0.262905,0.24781 0.05314,-0.22175 -0.587428,-1.31497 z m 14.273592,0.53039 c 0.855192,-0.47138 1.973994,-1.09503 2.486227,-1.3859 0.805823,-0.45757 4.675655,-2.61056 6.053667,-3.36796 0.256116,-0.14077 0.903816,-0.50343 1.439333,-0.80592 0.535517,-0.30248 1.222826,-0.69039 1.527355,-0.86202 0.304528,-0.17162 0.856978,-0.39724 1.227666,-0.50136 1.306591,-0.367 2.376412,-0.67597 3.213979,-0.92822 0.465666,-0.14025 1.752873,-0.52241 2.86046,-0.84925 l 2.013793,-0.59425 3.42563,-3.36954 c 2.674498,-2.63071 3.452882,-3.4438 3.549914,-3.70821 0.06836,-0.18626 0.451174,-1.44356 0.850706,-2.794 0.399532,-1.35043 0.87545,-2.91253 1.057596,-3.47133 0.303531,-0.93119 0.688768,-2.19959 1.491473,-4.91067 0.634294,-2.14228 0.531738,-1.96052 1.65445,-2.93227 0.550311,-0.47631 0.991578,-0.87501 0.980594,-0.886 -0.07329,-0.0733 -3.821741,-1.89673 -3.899118,-1.89673 -0.01864,0 -0.810806,-0.37604 -1.760364,-0.83566 -0.949557,-0.45961 -2.064832,-0.99288 -2.478387,-1.18503 l -0.751918,-0.34938 -2.924005,2.8572 c -1.608203,1.57147 -4.71789,4.62886 -6.910415,6.79421 -4.494419,4.43871 -3.75022,3.50772 -5.888107,7.366 -0.451549,0.81491 -1.29919,2.33891 -1.883647,3.38666 -1.053946,1.8894 -2.376025,4.26697 -4.048879,7.28134 -0.478089,0.86148 -1.507367,2.70933 -2.287283,4.10633 -2.03036,3.63681 -2.614248,4.699 -2.583064,4.699 0.0151,0 0.727152,-0.38567 1.582344,-0.85704 z"
     id="path2" /></svg>
