<?xml version="1.0" encoding="UTF-8" standalone="no"?>
<!DOCTYPE svg PUBLIC "-//W3C//DTD SVG 1.1//EN" "http://www.w3.org/Graphics/SVG/1.1/DTD/svg11.dtd">
<svg width="100%" height="100%" viewBox="0 0 289 372" version="1.1" xmlns="http://www.w3.org/2000/svg" xmlns:xlink="http://www.w3.org/1999/xlink" xml:space="preserve" xmlns:serif="http://www.serif.com/" style="fill-rule:evenodd;clip-rule:evenodd;stroke-linejoin:round;stroke-miterlimit:2;">
    <g id="path2" transform="matrix(0.924496,0,0,0.924496,10.8897,14.0342)">
        <path d="M140.962,363.54C137.492,359.019 133.946,354.375 133.083,353.221C132.219,352.066 129.348,348.286 126.703,344.821C114.901,329.36 109.762,322.617 107.757,319.961C105.632,317.147 105.591,317.109 104.877,317.323C103.498,317.738 99.818,318.775 96.434,319.703L93.035,320.635L89.937,317.458C86.597,314.032 74.104,300.972 69.253,295.835C67.614,294.1 62.97,289.251 58.933,285.061C51.498,277.344 50.543,276.15 49.822,273.673C49.699,273.252 48.805,271.054 47.836,268.79L46.072,264.674L45.899,266.557C45.478,271.14 45.224,274.408 45.076,277.15C44.989,278.773 44.836,280.015 44.737,279.91C44.339,279.489 42.26,275.427 29.396,249.951C24.206,239.673 24.519,240.564 23.392,232.81C23.25,231.826 23.097,230.985 23.054,230.942C22.872,230.759 22.36,236.234 22.035,241.863C21.949,243.35 21.836,244.524 21.784,244.472C21.669,244.357 20.015,238.311 18.492,232.44C17.876,230.064 16.896,226.338 16.316,224.16C15.735,221.982 15.098,219.552 14.9,218.76C14.702,217.968 14.201,216.078 13.786,214.56C13.372,213.042 12.94,211.358 12.827,210.818C12.714,210.278 12.351,208.874 12.022,207.698C11.434,205.6 10.86,203.414 8.498,194.28C7.85,191.772 6.832,187.884 6.238,185.64C3.416,174.997 3.498,175.443 2.749,166.56C2.609,164.91 2.392,162.48 2.266,161.16C2.14,159.84 1.98,157.896 1.911,156.84C1.842,155.784 1.684,153.894 1.561,152.64C1.437,151.386 1.223,149.064 1.086,147.48C0.948,145.896 0.65,142.602 0.422,140.16C0.195,137.718 0.005,133.614 0.001,131.04C-0.008,126.579 0.066,123.777 0.595,108.36C0.722,104.664 0.885,99.21 0.957,96.24C1.029,93.27 1.149,89.946 1.222,88.854C1.356,86.868 1.356,86.868 2.174,86.526C3.084,86.146 3.115,85.996 3.017,82.38C2.962,80.37 2.994,80.35 4.906,81.194L6.161,81.748L7.101,85.574C7.618,87.678 8.511,91.29 9.086,93.6C9.66,95.91 10.379,98.907 10.684,100.26C10.989,101.613 11.302,102.72 11.38,102.72C11.458,102.72 11.486,100.263 11.442,97.26C11.355,91.247 11.2,92.296 14.015,79.8C14.401,78.084 15.06,75.06 15.479,73.08C15.898,71.1 16.604,68.076 17.049,66.36C17.493,64.644 18.68,60.054 19.686,56.16C20.693,52.266 22.033,47.19 22.666,44.88C23.298,42.57 24.223,39.06 24.721,37.08C25.219,35.1 25.705,33.391 25.8,33.282C25.895,33.173 26.042,33.605 26.128,34.242C26.213,34.879 26.55,36.912 26.876,38.76C27.202,40.608 27.902,44.712 28.433,47.88C28.963,51.048 29.773,55.8 30.232,58.44C31.811,67.526 31.866,68.095 32.151,78.48C32.477,90.357 32.97,104.458 33.063,104.551C33.169,104.657 36.226,99.296 41.156,90.36C43.705,85.74 46.261,81.144 46.836,80.147C47.869,78.356 47.891,78.272 48.59,73.307C49.347,67.928 49.847,64.538 50.395,61.08C50.583,59.892 51.015,56.868 51.355,54.36C52.171,48.33 52.168,48.348 52.551,48.753C52.721,48.933 53.319,49.944 53.881,51C54.442,52.056 56.59,55.836 58.654,59.4C60.718,62.964 62.666,66.366 62.984,66.96C63.301,67.554 64.621,69.857 65.916,72.078C67.212,74.299 68.272,76.164 68.272,76.221C68.272,76.278 70.824,81.535 73.943,87.903C78.88,97.982 81.639,103.681 82.628,105.84C82.839,106.3 82.875,104.819 82.785,99.48C82.721,95.652 82.616,91.71 82.553,90.72C82.49,89.73 82.372,85.572 82.29,81.48C82.208,77.388 82.056,71.664 81.954,68.76C81.715,62.01 81.93,23.829 82.299,7.2L82.387,3.24L84.15,1.996C85.119,1.312 86.038,0.745 86.191,0.736C86.345,0.728 89.717,5.067 93.686,10.38C97.655,15.693 105.018,25.548 110.049,32.28C115.08,39.012 120.094,45.87 121.191,47.52C124.077,51.863 131.152,62.871 131.152,63.019C131.152,63.089 133.69,67.079 136.792,71.888C139.894,76.696 142.432,80.69 142.432,80.764C142.432,80.838 143.223,82.11 144.189,83.589C145.154,85.069 146.15,86.631 146.4,87.06C146.651,87.489 146.93,87.84 147.02,87.84C147.209,87.84 149.303,84.515 155.03,75.12C157.243,71.49 159.627,67.602 160.327,66.48C161.028,65.358 163.679,61.041 166.219,56.886C168.76,52.732 172.081,47.548 173.601,45.366C175.121,43.185 177.285,40.05 178.411,38.4C179.537,36.75 181.399,34.05 182.548,32.4C183.696,30.75 186.165,27.186 188.033,24.48C189.901,21.774 193.149,17.076 195.251,14.04C197.353,11.004 200.389,6.603 201.998,4.26C203.607,1.917 205.001,0 205.097,0C205.192,0 206.082,0.873 207.073,1.94C209.219,4.25 208.961,2.581 209.514,17.76C209.724,23.502 210.048,31.926 210.235,36.48C210.897,52.584 210.952,54.94 210.898,64.8C210.868,70.278 210.718,81.702 210.565,90.187C210.412,98.672 210.333,105.661 210.391,105.718C210.499,105.827 211.04,104.63 214.189,97.32C215.212,94.944 216.864,91.11 217.859,88.8C222.025,79.126 223.249,76.544 226.907,69.706C229.022,65.754 232.394,59.415 234.402,55.619C236.533,51.59 238.12,48.843 238.215,49.019C238.305,49.185 238.454,49.806 238.546,50.4C238.639,50.994 239.076,53.208 239.519,55.32C239.961,57.432 240.663,60.942 241.079,63.12C241.494,65.298 242.139,68.592 242.512,70.44C242.884,72.288 243.427,74.98 243.717,76.423C244.199,78.814 244.453,79.441 246.582,83.503C247.867,85.954 249.785,89.526 250.845,91.44C251.906,93.354 253.419,96.162 254.209,97.68C256.738,102.544 258.152,105.12 258.289,105.12C258.363,105.12 258.352,100.827 258.265,95.58C257.957,77.045 258.041,68.743 258.584,64.08C258.853,61.77 259.178,58.8 259.305,57.48C259.755,52.837 260.252,48.111 260.379,47.28C260.45,46.818 260.781,43.754 261.114,40.471C261.447,37.188 261.77,34.421 261.831,34.322C261.967,34.102 263.838,34.423 264.101,34.711C264.291,34.921 265.596,39.688 267.476,47.04C268.033,49.218 268.858,52.378 269.31,54.061C269.761,55.745 270.442,58.337 270.822,59.821C271.792,63.614 273.767,71.169 275.448,77.52C276.234,80.49 277.031,83.599 277.218,84.429C277.692,86.525 278.979,91.225 279.159,91.516C279.241,91.649 279.299,92.793 279.288,94.059L279.268,96.36L279.941,93.6C280.311,92.082 280.848,89.814 281.134,88.56C282.669,81.833 282.536,82.186 283.979,80.998C284.699,80.405 285.364,79.92 285.457,79.92C285.55,79.92 285.577,81.45 285.517,83.32C285.427,86.142 285.47,86.764 285.766,86.981C286.12,87.24 286.162,87.649 286.566,94.8C286.629,95.922 286.731,97.542 286.793,98.4C286.854,99.258 286.964,101.796 287.037,104.04C287.11,106.284 287.22,108.606 287.282,109.2C287.407,110.399 287.774,117.454 287.999,123C288.079,124.98 288.24,127.95 288.356,129.6C288.559,132.479 288.469,134.723 287.894,141.12C287.758,142.638 287.537,145.5 287.405,147.48C287.141,151.418 286.588,158.322 286.175,162.84C286.031,164.424 285.832,168.852 285.734,172.68L285.555,179.64L284.066,185.64C283.247,188.94 282.097,193.476 281.511,195.72C280.309,200.321 276.597,215.13 274.292,224.52C273.45,227.952 272.546,231.516 272.283,232.44C272.02,233.364 271.422,235.686 270.955,237.6C270.487,239.514 269.958,241.62 269.78,242.28C269.455,243.48 269.455,243.48 269.313,242.64C269.097,241.355 268.23,235.021 268.049,233.4C267.749,230.718 267.552,230.992 267.261,234.494C267.103,236.4 266.919,238.39 266.852,238.916C266.741,239.78 264.513,244.721 260.194,253.68C259.335,255.462 257.286,259.782 255.641,263.28C249.727,275.855 247.926,279.562 247.776,279.469C247.629,279.378 247.404,277.249 247.169,273.72C247.108,272.796 246.953,270.976 246.825,269.675C246.697,268.374 246.591,266.754 246.589,266.075C246.583,264.01 246.287,264.071 245.281,266.344C244.771,267.497 244.008,269.196 243.585,270.12C243.162,271.044 242.562,272.394 242.252,273.12C241.941,273.846 241.519,274.788 241.314,275.214C240.883,276.106 237.139,280.396 225.967,292.8C224.957,293.922 222.349,296.838 220.172,299.28C217.996,301.722 213.951,306.252 211.184,309.347C208.417,312.442 205.044,316.222 203.688,317.747C202.333,319.272 201.136,320.52 201.028,320.52C200.828,320.52 198.326,319.757 192.126,317.806L188.659,316.715L188.231,317.298C186.935,319.063 181.042,326.951 180.426,327.746C179.448,329.007 163.906,349.818 160.441,354.506C153.731,363.587 147.58,371.739 147.432,371.749C147.344,371.755 144.433,368.061 140.963,363.54L140.962,363.54ZM128.644,258.387C127.516,256.461 126.592,254.824 126.592,254.748C126.592,254.673 124.897,251.675 122.826,248.086C120.754,244.497 118.746,240.966 118.364,240.24C117.982,239.514 115.966,235.95 113.885,232.32C111.803,228.69 108.176,222.318 105.824,218.16C103.473,214.002 99.837,207.62 97.744,203.977L93.94,197.354L89.086,192.806C82.253,186.402 59.143,164.811 55.703,161.618L52.836,158.956L48.014,161.104C45.362,162.286 42.544,163.517 41.752,163.839C40.96,164.162 39.633,164.744 38.802,165.133C37.971,165.522 37.237,165.84 37.172,165.84C37.106,165.84 36.382,166.15 35.562,166.53C34.743,166.909 32.506,167.9 30.592,168.732C28.678,169.564 26.967,170.375 26.79,170.534C26.525,170.77 26.629,170.948 27.356,171.511C30.304,173.792 32.673,175.752 32.936,176.129C33.103,176.367 33.388,177.093 33.57,177.741C33.752,178.39 35.787,184.482 38.093,191.28C40.398,198.078 43.118,206.124 44.136,209.16C45.933,214.516 46.021,214.712 47.11,215.749C47.727,216.337 52.214,220.711 57.08,225.469C61.945,230.227 66.037,234.189 66.172,234.274C66.307,234.359 67.888,234.832 69.685,235.325C71.482,235.818 74.37,236.637 76.102,237.146C77.834,237.655 79.886,238.225 80.662,238.414C81.94,238.724 87.003,240.135 90.352,241.115C91.078,241.327 92.482,241.956 93.472,242.513C94.462,243.07 96.676,244.258 98.392,245.155C102.906,247.512 112.519,252.618 118.072,255.609C120.712,257.031 124.492,259.026 126.472,260.043C128.452,261.059 130.179,261.992 130.309,262.115C131.055,262.817 130.46,261.486 128.644,258.387ZM169.105,259.891C171.529,258.554 174.7,256.787 176.152,255.962C178.437,254.665 189.406,248.562 193.312,246.415C194.038,246.016 195.874,244.988 197.392,244.131C198.91,243.273 200.859,242.174 201.722,241.687C202.585,241.201 204.151,240.561 205.202,240.266C208.906,239.226 211.938,238.35 214.312,237.635C215.632,237.237 219.281,236.154 222.421,235.227L228.129,233.543L237.84,223.991C245.421,216.534 247.627,214.229 247.902,213.48C248.096,212.952 249.181,209.388 250.314,205.56C251.446,201.732 252.795,197.304 253.312,195.72C254.172,193.08 255.264,189.485 257.54,181.8C259.338,175.727 259.047,176.243 262.229,173.488C263.789,172.138 265.04,171.008 265.009,170.977C264.801,170.769 254.176,165.6 253.956,165.6C253.904,165.6 251.658,164.534 248.966,163.231C246.275,161.928 243.113,160.417 241.941,159.872L239.81,158.882L231.521,166.981C226.962,171.435 218.148,180.102 211.932,186.24C199.192,198.822 201.302,196.183 195.242,207.12C193.962,209.43 191.559,213.75 189.902,216.72C186.915,222.076 183.167,228.815 178.425,237.36C177.07,239.802 174.152,245.04 171.942,249C166.186,259.309 164.531,262.32 164.619,262.32C164.662,262.32 166.681,261.227 169.105,259.891Z" style="fill:white;fill-rule:nonzero;"/>
        <path d="M146.963,71.72L144.064,67.196C141.36,63.005 138.669,58.741 138.669,58.741L138.67,58.742C138.572,58.556 138.465,58.368 138.348,58.175C137.153,56.207 131.046,46.716 128.397,42.73C127.273,41.038 122.139,34.002 116.981,27.1C111.95,20.368 104.587,10.514 100.619,5.201C96.768,0.046 93.41,-4.236 92.662,-5.039C89.568,-8.359 86.328,-7.938 85.712,-7.904C85.706,-7.904 85.699,-7.903 85.692,-7.903C85.236,-7.877 82.036,-7.104 79.16,-5.074L77.398,-3.83C75.156,-2.247 73.797,0.304 73.736,3.048L73.648,7.008C73.298,22.762 73.091,57.706 73.268,67.505C72.084,65.475 70.906,63.426 70.617,62.884C70.617,62.884 70.617,62.884 70.617,62.884C70.289,62.269 68.277,58.749 66.142,55.063C64.146,51.615 62.064,47.959 61.521,46.938C61.521,46.938 61.521,46.938 61.521,46.938C60.462,44.945 59.158,43.145 58.837,42.806C55.428,39.203 51.491,39.622 49.116,40.571C47.79,41.1 45.305,42.086 43.98,46.108C43.775,46.732 43.408,48.56 42.78,53.198C42.45,55.635 42.031,58.572 41.848,59.726C41.848,59.726 41.848,59.726 41.848,59.726C41.404,62.531 40.99,65.291 40.455,69.079C40.214,65.43 39.794,62.921 38.757,56.958C38.301,54.331 37.495,49.603 36.967,46.451C36.433,43.257 35.726,39.12 35.397,37.256C35.397,37.256 35.397,37.256 35.397,37.256C35.097,35.553 34.783,33.68 34.704,33.093C34.212,29.417 32.086,27.208 31.442,26.665C29.45,24.984 27.359,24.546 25.494,24.618C23.399,24.7 21.185,25.409 19.279,27.593C19.278,27.594 19.278,27.594 19.278,27.595C18.964,27.955 18.305,28.724 17.746,30.098C17.545,30.589 16.918,32.627 16.329,34.969C16.329,34.969 16.329,34.969 16.329,34.969C15.842,36.905 14.938,40.337 14.319,42.595C14.319,42.595 14.319,42.595 14.319,42.595C13.68,44.93 12.325,50.059 11.308,53.995C11.308,53.995 11.308,53.995 11.308,53.995C10.302,57.887 9.116,62.476 8.671,64.191C8.202,66.004 7.456,69.198 7.013,71.289L6.722,72.641C2.398,71.265 -0.182,72.638 -1.377,73.388C-2.788,74.274 -5.619,76.388 -5.64,82.068C-6.282,82.982 -7.155,84.478 -7.411,88.271C-7.411,88.271 -7.411,88.271 -7.411,88.271C-7.489,89.419 -7.618,92.91 -7.694,96.029C-7.694,96.03 -7.694,96.03 -7.694,96.03C-7.765,98.978 -7.927,104.393 -8.053,108.063C-8.053,108.063 -8.053,108.063 -8.053,108.063C-8.589,123.692 -8.661,126.534 -8.653,131.056C-8.648,133.852 -8.441,138.31 -8.194,140.962C-8.194,140.962 -8.194,140.962 -8.194,140.962C-7.968,143.386 -7.672,146.656 -7.535,148.228C-7.535,148.228 -7.535,148.229 -7.535,148.229C-7.395,149.844 -7.177,152.21 -7.051,153.489C-7.051,153.489 -7.051,153.489 -7.051,153.49C-6.936,154.658 -6.788,156.419 -6.724,157.403C-6.724,157.404 -6.724,157.404 -6.724,157.404C-6.651,158.524 -6.482,160.585 -6.348,161.985C-6.224,163.281 -6.011,165.667 -5.874,167.287C-5.067,176.863 -5.168,176.385 -2.127,187.858C-2.127,187.858 -2.127,187.858 -2.127,187.858C-1.535,190.088 -0.524,193.953 0.12,196.446C2.512,205.695 3.094,207.909 3.689,210.033C3.96,210.998 4.264,212.149 4.357,212.592C4.357,212.592 4.357,212.592 4.357,212.593C4.486,213.205 4.968,215.118 5.439,216.84C5.835,218.292 6.315,220.1 6.504,220.857C6.707,221.669 7.359,224.158 7.954,226.39C8.531,228.553 9.504,232.253 10.116,234.613C11.548,240.13 13.1,245.793 13.482,246.958C14.261,249.338 15.445,250.371 15.665,250.591C15.666,250.591 15.667,250.592 15.667,250.592C17.489,252.413 19.41,253.189 21.356,253.225L21.672,253.852C35.479,281.198 38.018,285.399 38.446,285.851C38.447,285.853 38.448,285.854 38.449,285.855C40.479,288.002 42.759,288.599 44.872,288.569C46.156,288.551 47.714,288.318 49.23,287.394C50.234,288.482 51.383,289.697 52.701,291.065C56.715,295.231 61.332,300.051 62.962,301.776C67.835,306.937 80.386,320.056 83.741,323.498C83.741,323.498 86.839,326.676 86.839,326.676C89.037,328.93 92.287,329.813 95.323,328.98L98.722,328.049L102.283,327.059C104.952,330.581 110.155,337.404 119.824,350.071C122.449,353.509 125.297,357.259 126.153,358.404C126.153,358.404 126.153,358.404 126.153,358.404C127.024,359.568 130.599,364.251 134.098,368.809L134.103,368.816C137.42,373.136 140.268,376.733 140.87,377.408C144.063,380.982 147.54,380.413 147.987,380.385C147.999,380.384 148.011,380.383 148.023,380.382C148.347,380.36 151.48,380.463 154.323,377.02C155.513,375.579 161.229,368.001 167.4,359.649C170.844,354.989 186.291,334.303 187.263,333.05C187.635,332.57 189.893,329.556 191.943,326.804C198.145,328.684 200.8,329.173 201.028,329.173C201.845,329.173 203.923,329.197 206.32,327.379C206.732,327.066 208.391,325.482 210.156,323.495C211.509,321.974 214.874,318.202 217.635,315.115C220.404,312.017 224.453,307.482 226.632,305.038C228.797,302.609 231.392,299.708 232.397,298.591C237.007,293.473 240.439,289.578 242.953,286.656L243.226,286.83C245.121,288.001 247.391,288.571 250.131,287.8C250.947,287.571 253.052,287.055 254.95,284.358C255.443,283.658 257.704,279.227 263.472,266.963C265.104,263.492 267.137,259.206 267.989,257.438C267.989,257.438 267.989,257.438 267.989,257.438C268.975,255.393 269.854,253.521 270.627,251.824C271.981,251.658 273.379,251.145 274.765,250.075C275.146,249.782 277.071,248.459 278.132,244.542C278.319,243.852 278.873,241.653 279.361,239.653C279.8,237.856 280.359,235.675 280.606,234.808C280.879,233.848 281.821,230.147 282.696,226.583C284.991,217.233 288.687,202.488 289.883,197.907C289.883,197.907 289.883,197.907 289.883,197.907C290.476,195.64 291.637,191.058 292.464,187.724L293.953,181.724C294.105,181.115 294.189,180.49 294.205,179.862L294.384,172.902C294.477,169.294 294.657,165.12 294.793,163.626C295.211,159.048 295.771,152.05 296.039,148.059C296.167,146.14 296.38,143.367 296.513,141.896C296.513,141.895 296.513,141.895 296.513,141.895C297.157,134.731 297.216,132.216 296.988,128.992C296.988,128.991 296.988,128.991 296.988,128.991C296.876,127.405 296.722,124.551 296.645,122.648C296.411,116.883 296.019,109.549 295.889,108.303C295.889,108.302 295.889,108.301 295.889,108.301C295.834,107.778 295.75,105.734 295.686,103.759C295.609,101.381 295.489,98.691 295.424,97.781C295.365,96.955 295.266,95.394 295.205,94.313C295.205,94.313 295.205,94.313 295.205,94.312C294.863,88.253 294.623,86.202 294.431,85.403C294.343,85.04 294.25,84.704 294.149,84.393L294.166,83.596C294.261,80.636 293.962,78.169 293.836,77.704C292.208,71.69 287.358,71.267 285.457,71.267C284.882,71.267 283.981,71.302 282.855,71.663C281.438,66.297 279.991,60.748 279.205,57.676C278.819,56.167 278.127,53.531 277.667,51.819C277.222,50.159 276.408,47.044 275.86,44.897C275.86,44.897 275.86,44.897 275.86,44.897C274.046,37.804 272.699,32.964 272.305,31.902C271.645,30.121 270.81,29.227 270.502,28.888C269.876,28.201 268.801,27.246 267.154,26.569C265.807,26.015 263.119,25.551 261.762,25.603C257.474,25.768 255.309,28.415 254.471,29.771C254.471,29.772 254.47,29.772 254.47,29.773C254.286,30.07 253.624,31.046 253.291,32.885C253.18,33.496 252.838,36.313 252.505,39.597C252.193,42.67 251.892,45.539 251.826,45.971C251.826,45.971 251.826,45.971 251.826,45.971C251.692,46.841 251.162,51.787 250.692,56.647C250.692,56.647 250.692,56.647 250.692,56.647C250.568,57.933 250.251,60.828 249.989,63.079L249.952,63.427L249.579,61.498C249.155,59.277 248.439,55.699 247.988,53.546C247.988,53.546 247.988,53.546 247.988,53.546C247.586,51.624 247.181,49.61 247.097,49.07C246.813,47.246 246.1,45.407 245.825,44.899C245.825,44.899 245.824,44.898 245.824,44.898C244.136,41.781 241.548,40.39 238.287,40.358C237.073,40.346 234.496,40.408 231.958,43C231.5,43.469 229.298,46.761 226.753,51.573C224.834,55.199 221.667,61.154 219.549,65.114L219.551,64.847C219.606,54.847 219.552,52.458 218.881,36.125C218.694,31.581 218.371,23.175 218.162,17.445C218.162,17.445 218.162,17.445 218.162,17.445C217.871,9.462 217.751,5.823 217.472,3.894C217.155,1.707 216.608,0.393 216.016,-0.679C215.417,-1.762 214.706,-2.558 213.413,-3.95C211.879,-5.6 210.388,-6.877 210.006,-7.136C207.804,-8.629 205.948,-8.653 205.097,-8.653C204.331,-8.653 201.472,-8.808 198.71,-5.854C198.322,-5.44 196.675,-3.275 194.864,-0.639C193.26,1.698 190.232,6.087 188.136,9.115C186.032,12.153 182.782,16.855 180.912,19.564C179.05,22.26 176.591,25.811 175.446,27.456C174.284,29.124 172.403,31.854 171.264,33.522C171.264,33.522 171.264,33.522 171.264,33.522C170.149,35.156 168.005,38.26 166.5,40.42C166.5,40.42 166.5,40.42 166.5,40.42C164.924,42.684 161.473,48.061 158.837,52.372C158.837,52.372 158.837,52.372 158.837,52.372C156.315,56.497 153.683,60.783 152.987,61.897C152.987,61.897 152.987,61.897 152.987,61.897C152.28,63.029 149.874,66.953 147.641,70.616L146.963,71.72ZM143.567,366.912C145.78,369.762 147.368,371.753 147.432,371.749C147.58,371.739 153.731,363.587 160.441,354.506C163.906,349.818 179.448,329.007 180.426,327.746C181.042,326.951 186.935,319.063 188.231,317.298L188.659,316.715L192.126,317.806C198.326,319.757 200.828,320.52 201.028,320.52C201.136,320.52 202.333,319.272 203.688,317.747C205.044,316.222 208.417,312.442 211.184,309.347C213.951,306.252 217.996,301.722 220.172,299.28C222.349,296.838 224.957,293.922 225.967,292.8C237.139,280.396 240.883,276.106 241.314,275.214C241.519,274.788 241.941,273.846 242.252,273.12C242.562,272.394 243.162,271.044 243.585,270.12C244.008,269.196 244.771,267.497 245.281,266.344C246.287,264.071 246.583,264.01 246.589,266.075C246.591,266.754 246.697,268.374 246.825,269.675C246.953,270.976 247.108,272.796 247.169,273.72C247.404,277.249 247.629,279.378 247.776,279.469C247.926,279.562 249.727,275.855 255.641,263.28C257.286,259.782 259.335,255.462 260.194,253.68C264.513,244.721 266.741,239.78 266.852,238.916C266.919,238.39 267.103,236.4 267.261,234.494C267.552,230.992 267.749,230.718 268.049,233.4C268.23,235.021 269.097,241.355 269.313,242.64C269.455,243.48 269.455,243.48 269.78,242.28C269.958,241.62 270.487,239.514 270.955,237.6C271.422,235.686 272.02,233.364 272.283,232.44C272.546,231.516 273.45,227.952 274.292,224.52C276.597,215.13 280.309,200.321 281.511,195.72C282.097,193.476 283.247,188.94 284.066,185.64L285.555,179.64L285.734,172.68C285.832,168.852 286.031,164.424 286.175,162.84C286.588,158.322 287.141,151.418 287.405,147.48C287.537,145.5 287.758,142.638 287.894,141.12C288.469,134.723 288.559,132.479 288.356,129.6C288.24,127.95 288.079,124.98 287.999,123C287.774,117.454 287.407,110.399 287.282,109.2C287.22,108.606 287.11,106.284 287.037,104.04C286.964,101.796 286.854,99.258 286.793,98.4C286.731,97.542 286.629,95.922 286.566,94.8C286.162,87.649 286.12,87.24 285.766,86.981C285.47,86.764 285.427,86.142 285.517,83.32C285.577,81.45 285.55,79.92 285.457,79.92C285.364,79.92 284.699,80.405 283.979,80.998C282.536,82.186 282.669,81.833 281.134,88.56C280.848,89.814 280.311,92.082 279.941,93.6L279.268,96.36L279.288,94.059C279.299,92.793 279.241,91.649 279.159,91.516C278.979,91.225 277.692,86.525 277.218,84.429C277.031,83.599 276.234,80.49 275.448,77.52C273.767,71.169 271.792,63.614 270.822,59.821C270.442,58.337 269.761,55.745 269.31,54.061C268.858,52.378 268.033,49.218 267.476,47.04C265.596,39.688 264.291,34.921 264.101,34.711C263.838,34.423 261.967,34.102 261.831,34.322C261.77,34.421 261.447,37.188 261.114,40.471C260.781,43.754 260.45,46.818 260.379,47.28C260.252,48.111 259.755,52.837 259.305,57.48C259.178,58.8 258.853,61.77 258.584,64.08C258.041,68.743 257.957,77.045 258.265,95.58C258.352,100.827 258.363,105.12 258.289,105.12C258.152,105.12 256.738,102.544 254.209,97.68C253.419,96.162 251.906,93.354 250.845,91.44C249.785,89.526 247.867,85.954 246.582,83.503C244.453,79.441 244.199,78.814 243.717,76.423C243.427,74.98 242.884,72.288 242.512,70.44C242.139,68.592 241.494,65.298 241.079,63.12C240.663,60.942 239.961,57.432 239.519,55.32C239.076,53.208 238.639,50.994 238.546,50.4C238.454,49.806 238.305,49.185 238.215,49.019C238.12,48.843 236.533,51.59 234.402,55.619C232.394,59.415 229.022,65.754 226.907,69.706C223.249,76.544 222.025,79.126 217.859,88.8C216.864,91.11 215.212,94.944 214.189,97.32C211.04,104.63 210.499,105.827 210.391,105.718C210.333,105.661 210.412,98.672 210.565,90.187C210.718,81.702 210.868,70.278 210.898,64.8C210.952,54.94 210.897,52.584 210.235,36.48C210.048,31.926 209.724,23.502 209.514,17.76C208.961,2.581 209.219,4.25 207.073,1.94C206.082,0.873 205.192,0 205.097,0C205.001,0 203.607,1.917 201.998,4.26C200.389,6.603 197.353,11.004 195.251,14.04C193.149,17.076 189.901,21.774 188.033,24.48C186.165,27.186 183.696,30.75 182.548,32.4C181.399,34.05 179.537,36.75 178.411,38.4C177.285,40.05 175.121,43.185 173.601,45.366C172.081,47.548 168.76,52.732 166.219,56.886C163.679,61.041 161.028,65.358 160.327,66.48C159.627,67.602 157.243,71.49 155.03,75.12C149.303,84.515 147.209,87.84 147.02,87.84C146.93,87.84 146.651,87.489 146.4,87.06C146.15,86.631 145.154,85.069 144.189,83.589C143.223,82.11 142.432,80.838 142.432,80.764C142.432,80.69 139.894,76.696 136.792,71.888C133.69,67.079 131.152,63.089 131.152,63.019C131.152,62.871 124.077,51.863 121.191,47.52C120.094,45.87 115.08,39.012 110.049,32.28C105.018,25.548 97.655,15.693 93.686,10.38C89.717,5.067 86.345,0.728 86.191,0.736C86.038,0.745 85.119,1.312 84.15,1.996L82.387,3.24L82.299,7.2C81.93,23.829 81.715,62.01 81.954,68.76C82.056,71.664 82.208,77.388 82.29,81.48C82.372,85.572 82.49,89.73 82.553,90.72C82.616,91.71 82.721,95.652 82.785,99.48C82.875,104.819 82.839,106.3 82.628,105.84C81.639,103.681 78.88,97.982 73.943,87.903C70.824,81.535 68.272,76.278 68.272,76.221C68.272,76.164 67.212,74.299 65.916,72.078C64.621,69.857 63.301,67.554 62.984,66.96C62.666,66.366 60.718,62.964 58.654,59.4C56.59,55.836 54.442,52.056 53.881,51C53.319,49.944 52.721,48.933 52.551,48.753C52.168,48.348 52.171,48.33 51.355,54.36C51.015,56.868 50.583,59.892 50.395,61.08C49.847,64.538 49.347,67.928 48.59,73.307C47.891,78.272 47.869,78.356 46.836,80.147C46.261,81.144 43.705,85.74 41.156,90.36C36.226,99.296 33.169,104.657 33.063,104.551C32.97,104.458 32.477,90.357 32.151,78.48C31.866,68.095 31.811,67.526 30.232,58.44C29.773,55.8 28.963,51.048 28.433,47.88C27.902,44.712 27.202,40.608 26.876,38.76C26.55,36.912 26.213,34.879 26.128,34.242C26.042,33.605 25.895,33.173 25.8,33.282C25.705,33.391 25.219,35.1 24.721,37.08C24.223,39.06 23.298,42.57 22.666,44.88C22.033,47.19 20.693,52.266 19.686,56.16C18.68,60.054 17.493,64.644 17.049,66.36C16.604,68.076 15.898,71.1 15.479,73.08C15.06,75.06 14.401,78.084 14.015,79.8C11.2,92.296 11.355,91.247 11.442,97.26C11.486,100.263 11.458,102.72 11.38,102.72C11.302,102.72 10.989,101.613 10.684,100.26C10.379,98.907 9.66,95.91 9.086,93.6C8.511,91.29 7.618,87.678 7.101,85.574L6.161,81.748L4.906,81.194C2.994,80.35 2.962,80.37 3.017,82.38C3.115,85.996 3.084,86.146 2.174,86.526C1.356,86.868 1.356,86.868 1.222,88.854C1.149,89.946 1.029,93.27 0.957,96.24C0.885,99.21 0.722,104.664 0.595,108.36C0.066,123.777 -0.008,126.579 0.001,131.04C0.005,133.614 0.195,137.718 0.422,140.16C0.65,142.602 0.948,145.896 1.086,147.48C1.223,149.064 1.437,151.386 1.561,152.64C1.684,153.894 1.842,155.784 1.911,156.84C1.98,157.896 2.14,159.84 2.266,161.16C2.392,162.48 2.609,164.91 2.749,166.56C3.498,175.443 3.416,174.997 6.238,185.64C6.832,187.884 7.85,191.772 8.498,194.28C10.86,203.414 11.434,205.6 12.022,207.698C12.351,208.874 12.714,210.278 12.827,210.818C12.94,211.358 13.372,213.042 13.786,214.56C14.201,216.078 14.702,217.968 14.9,218.76C15.098,219.552 15.735,221.982 16.316,224.16C16.896,226.338 17.876,230.064 18.492,232.44C20.015,238.311 21.669,244.357 21.784,244.472C21.836,244.524 21.949,243.35 22.035,241.863C22.36,236.234 22.872,230.759 23.054,230.942C23.097,230.985 23.25,231.826 23.392,232.81C24.519,240.564 24.206,239.673 29.396,249.951C42.26,275.427 44.339,279.489 44.737,279.91C44.836,280.015 44.989,278.773 45.076,277.15C45.224,274.408 45.478,271.14 45.899,266.557L46.072,264.674L47.836,268.79C48.805,271.054 49.699,273.252 49.822,273.673C50.543,276.15 51.498,277.344 58.933,285.061C62.97,289.251 67.614,294.1 69.253,295.835C74.104,300.972 86.597,314.032 89.937,317.458L93.035,320.635L96.434,319.703C99.818,318.775 103.498,317.738 104.877,317.323C105.591,317.109 105.632,317.147 107.757,319.961C109.762,322.617 114.901,329.36 126.703,344.821C129.348,348.286 132.219,352.066 133.083,353.221C133.946,354.375 137.492,359.019 140.962,363.54L140.963,363.54C141.884,364.74 142.766,365.882 143.566,366.912L140.964,372.19L140.963,372.193L143.567,366.912ZM169.105,259.891C171.529,258.554 174.7,256.787 176.152,255.962C178.437,254.665 189.406,248.562 193.312,246.415C194.038,246.016 195.874,244.988 197.392,244.131C198.91,243.273 200.859,242.174 201.722,241.687C202.585,241.201 204.151,240.561 205.202,240.266C208.906,239.226 211.938,238.35 214.312,237.635C215.632,237.237 219.281,236.154 222.421,235.227L228.129,233.543L237.84,223.991C245.421,216.534 247.627,214.229 247.902,213.48C248.096,212.952 249.181,209.388 250.314,205.56C251.446,201.732 252.795,197.304 253.312,195.72C254.172,193.08 255.264,189.485 257.54,181.8C259.338,175.727 259.047,176.243 262.229,173.488C263.789,172.138 265.04,171.008 265.009,170.977C264.801,170.769 254.176,165.6 253.956,165.6C253.904,165.6 251.658,164.534 248.966,163.231C246.275,161.928 243.113,160.417 241.941,159.872L239.81,158.882L231.521,166.981C226.962,171.435 218.148,180.102 211.932,186.24C199.192,198.822 201.302,196.183 195.242,207.12C193.962,209.43 191.559,213.75 189.902,216.72C186.915,222.076 183.167,228.815 178.425,237.36C177.07,239.802 174.152,245.04 171.942,249C166.186,259.309 164.531,262.32 164.619,262.32C164.662,262.32 166.681,261.227 169.105,259.891ZM128.644,258.387C127.516,256.461 126.592,254.824 126.592,254.748C126.592,254.673 124.897,251.675 122.826,248.086C120.754,244.497 118.746,240.966 118.364,240.24C117.982,239.514 115.966,235.95 113.885,232.32C111.803,228.69 108.176,222.318 105.824,218.16C103.473,214.002 99.837,207.62 97.744,203.977L93.94,197.354L89.086,192.806C82.253,186.402 59.143,164.811 55.703,161.618L52.836,158.956L48.014,161.104C45.362,162.286 42.544,163.517 41.752,163.839C40.96,164.162 39.633,164.744 38.802,165.133C37.971,165.522 37.237,165.84 37.172,165.84C37.106,165.84 36.382,166.15 35.562,166.53C34.743,166.909 32.506,167.9 30.592,168.732C28.678,169.564 26.967,170.375 26.79,170.534C26.525,170.77 26.629,170.948 27.356,171.511C30.304,173.792 32.673,175.752 32.936,176.129C33.103,176.367 33.388,177.093 33.57,177.741C33.752,178.39 35.787,184.482 38.093,191.28C40.398,198.078 43.118,206.124 44.136,209.16C45.933,214.516 46.021,214.712 47.11,215.749C47.727,216.337 52.214,220.711 57.08,225.469C61.945,230.227 66.037,234.189 66.172,234.274C66.307,234.359 67.888,234.832 69.685,235.325C71.482,235.818 74.37,236.637 76.102,237.146C77.834,237.655 79.886,238.225 80.662,238.414C81.94,238.724 87.003,240.135 90.352,241.115C91.078,241.327 92.482,241.956 93.472,242.513C94.462,243.07 96.676,244.258 98.392,245.155C102.906,247.512 112.519,252.618 118.072,255.609C120.712,257.031 124.492,259.026 126.472,260.043C128.452,261.059 130.179,261.992 130.309,262.115C131.055,262.817 130.46,261.486 128.644,258.387ZM51.131,169.187C57.142,174.785 76.935,193.278 83.169,199.12C83.169,199.12 87.08,202.785 87.08,202.785C87.08,202.785 90.241,208.287 90.241,208.287C92.326,211.917 95.949,218.277 98.292,222.42C100.652,226.591 104.29,232.983 106.378,236.624L108.789,240.853C106.286,239.526 104.016,238.329 102.398,237.484C100.765,236.631 98.657,235.5 97.714,234.97C96.155,234.093 93.925,233.144 92.781,232.809C92.781,232.809 92.781,232.809 92.781,232.809C89.298,231.791 84.033,230.327 82.703,230.005C81.995,229.833 80.122,229.308 78.541,228.844C76.768,228.323 73.813,227.484 71.974,226.98L70.676,226.608C69.051,225.041 66.05,222.138 63.129,219.282C58.933,215.179 55.017,211.359 53.581,209.971C53.323,209.258 52.846,207.915 52.34,206.408C51.32,203.367 48.596,195.309 46.288,188.501C44.057,181.922 42.078,176.03 41.902,175.403C41.721,174.76 41.478,174.1 41.221,173.491C41.63,173.34 42.049,173.167 42.471,172.97C43.187,172.634 44.332,172.132 45.015,171.854C45.799,171.535 48.494,170.361 51.131,169.187ZM241.56,169.27L245.196,171.02C247.783,172.272 249.987,173.315 250.442,173.512C250.581,173.572 250.717,173.627 250.849,173.677L250.993,173.747C250.517,175.057 249.99,176.817 249.242,179.343C247.004,186.904 245.931,190.441 245.084,193.038C245.084,193.038 245.084,193.038 245.084,193.038C244.556,194.659 243.175,199.189 242.016,203.105C242.016,203.105 242.016,203.105 242.016,203.105C241.276,205.607 240.563,207.991 240.14,209.363C239.002,210.555 236.051,213.613 231.772,217.822C231.772,217.822 223.604,225.856 223.604,225.856L219.972,226.928C216.814,227.86 213.144,228.949 211.817,229.349C209.483,230.052 206.502,230.912 202.862,231.935C201.234,232.392 198.811,233.395 197.473,234.148L193.137,236.596C191.651,237.435 189.855,238.441 189.144,238.832L186.779,240.143L197.459,220.935C199.12,217.959 201.528,213.629 202.811,211.314C202.811,211.314 202.811,211.314 202.811,211.314C208.313,201.385 206.447,203.82 218.013,192.397C224.218,186.269 233.018,177.617 237.569,173.17L241.56,169.27Z"/>
    </g>
</svg>
